<?xml version="1.0" encoding="UTF-8"?>
<svg id="Layer_2" data-name="Layer 2" xmlns="http://www.w3.org/2000/svg" viewBox="0 0 200.31 70.19">
  <defs>
    <style>
      .cls-1 {
        fill: #fff;
      }

      .cls-2 {
        fill: #30017e;
      }
    </style>
  </defs>
  <g id="textblock">
    <g id="tight-bounds">
      <g>
        <rect class="cls-2" width="200.31" height="70.19"/>
        <path id="text-0" class="cls-1" d="m20.64,23.15h-5.69v10.82h5.04v-2.54h1.27v6.94h-1.27v-2.18h-5.04v10.77h1.69v2.22h-4.67v-2.22h1.41v-23.81h-1.41v-2.22h9.83l-.02.24.3,5.57-1.16.32-.28-3.91Zm4.58,0h-1.53v-2.22h4.67v2.22h-1.57v23.81h1.57v2.22h-4.67v-2.22h1.53v-23.81Zm9.35,23.65h0c1.71,0,2.99-.75,3.82-2.26h0c.48-.86.72-1.88.72-3.07,0-1.18-.17-2.16-.5-2.93-.33-.76-.76-1.36-1.28-1.78-.52-.41-1.11-.78-1.75-1.09-.64-.31-1.28-.63-1.92-.98-.64-.35-1.22-.77-1.74-1.25s-.95-1.17-1.29-2.06c-.33-.89-.5-1.95-.5-3.19h0c0-2.15.46-3.91,1.39-5.29.93-1.37,2.15-2.06,3.68-2.06s2.96.27,4.3.81h0v.04h.07l.25,5.04-1.13.32-.25-3.39c-.86-.27-1.82-.4-2.86-.4s-1.95.4-2.72,1.19c-.77.8-1.16,1.92-1.16,3.37,0,1.45.31,2.56.93,3.31.62.75,1.37,1.32,2.24,1.71.88.39,1.76.83,2.64,1.32.88.48,1.63,1.32,2.24,2.5s.93,2.74.93,4.68h0c0,2.61-.56,4.57-1.67,5.89-1.11,1.32-2.49,1.98-4.14,1.98h0c-2.08,0-3.83-.82-5.23-2.46h0l.02-4.28,1.13-.2.05,3.07c1.17.97,2.41,1.45,3.73,1.45Zm14.39-23.69h0c-1.74,0-3.12,1.13-4.14,3.39-1.02,2.26-1.53,5.52-1.53,9.77h0c0,1.83.11,3.43.32,4.8.22,1.37.48,2.43.8,3.19.31.75.7,1.35,1.17,1.78h0c.74.73,1.6,1.09,2.59,1.09h0c1.53,0,3.05-.3,4.58-.89h0l.28,2.1c-.26.16-.96.37-2.09.62-1.14.26-2.06.39-2.77.39s-1.33-.09-1.85-.27c-.52-.17-1.08-.54-1.67-1.11-.59-.56-1.08-1.31-1.49-2.24-.41-.93-.75-2.2-1.03-3.81s-.42-3.5-.42-5.65h0c0-4.76.62-8.47,1.87-11.14h0c1.31-2.8,3.1-4.2,5.37-4.2h0c.69,0,1.45.11,2.26.34.81.23,1.38.45,1.72.67h0l.28,5.81-1.13.28-.32-4.36c-.99-.38-1.92-.56-2.8-.56Zm20.57,26.07h-4.67v-2.22h1.41l-1.06-5.25h-7.13l-1.04,5.25h1.67v2.22h-4.67v-2.22h1.53l5.39-26.03h1.41l5.58,26.03h1.6v2.22Zm-4.74-9.48l-3.22-15.7-3.1,15.7h6.32Zm7.47-16.55h-1.43v-2.22h4.67v2.22h-1.67v23.81h5.88l.35-5.04,1.13.2-.25,4.84h.02l-.02.08-.09,2.14-.23-.04v.04h-9.79v-2.22h1.43v-23.81Zm18.95,0h-1.5v-2.22h4.98c3.33,0,5,2.27,5,6.82h0c0,1.91-.42,3.97-1.25,6.17h0c1.47,1.05,2.2,3.35,2.2,6.9h0c0,3.17-.46,5.36-1.37,6.55-.92,1.2-2.33,1.8-4.23,1.8h-5.32v-2.22h1.5v-23.81Zm4.28,12.19h-2.71v11.62h2.13c.71,0,1.29-.07,1.74-.2.45-.13.87-.4,1.27-.81h0c.76-.73,1.13-2.38,1.13-4.96h0c0-2.04-.3-3.5-.89-4.36-.6-.86-1.49-1.29-2.68-1.29Zm-2.71-2.22h2.82c.57,0,1.06.05,1.48.16h0c.68-1.86,1.02-3.62,1.02-5.29h0c0-3.23-1.18-4.84-3.54-4.84h-1.78v9.97Zm10.97-9.97h-1.5v-2.22h4.67v2.22h-1.6v13.88c0,4.17.47,6.94,1.41,8.31h0c.45.67.9,1.14,1.37,1.39.46.26,1,.39,1.62.39h0c1.25,0,2.27-.81,3.07-2.42.79-1.61,1.19-4.17,1.19-7.67h0v-13.88h-1.53v-2.22h4.44v2.22h-1.46v13.92c0,4.22-.53,7.32-1.6,9.3-1.06,1.98-2.44,2.97-4.12,2.97h0c-.85,0-1.59-.16-2.23-.47-.64-.31-1.26-.88-1.87-1.71h0c-1.25-1.69-1.87-5.06-1.87-10.09h0v-13.92Zm16.66,0h-1.43v-2.22h4.67v2.22h-1.67v23.81h5.88l.35-5.04,1.13.2-.25,4.84h.02l-.02.08-.09,2.14-.23-.04v.04h-9.79v-2.22h1.43v-23.81Zm11.8,0h-1.43v-2.22h4.67v2.22h-1.67v23.81h5.88l.35-5.04,1.13.2-.25,4.84h.02l-.02.08-.09,2.14-.23-.04v.04h-9.79v-2.22h1.43v-23.81Zm11.77,0h-1.41v-2.22h9.83l-.02.24.3,5.57-1.16.32-.28-3.91h-5.69v10.82h5.04v-2.54h1.27v6.94h-1.27v-2.18h-5.04v10.77h6.32l.35-5.04,1.13.2-.35,7.06h-10.44v-2.22h1.41v-23.81Zm18.12,26.03h-4.65v-2.22h1.5v-23.61h-3.4l-.25,3.71-1.13-.32.28-5.81h10.55l.3,5.81-1.16.32-.28-3.71h-3.45v23.61h1.69v2.22Zm6.11-26.03h-1.53v-2.22h4.67v2.22h-1.57v23.81h1.57v2.22h-4.67v-2.22h1.53v-23.81Zm6.41,0h-1.48v-2.22h3.17l9.21,24.62-.09-22.4h-1.5v-2.22h4.42v2.22h-1.46v26.03h-1.69l-9.23-24.62.09,22.4h1.76v2.22h-4.67v-2.22h1.48v-23.81Z"/>
      </g>
    </g>
  </g>
</svg>