<svg xmlns="http://www.w3.org/2000/svg" xmlns:xlink="http://www.w3.org/1999/xlink" width="187" zoomAndPan="magnify" viewBox="0 0 140.25 44.999999" height="60" preserveAspectRatio="xMidYMid meet" version="1.0"><defs><g/></defs><g fill="#8482e8" fill-opacity="1"><g transform="translate(22.786367, 36.734783)"><g><path d="M 0.480469 -0.199219 L 0.539062 -0.0703125 L 0.660156 0.0078125 L 0.871094 -0.0117188 L 1.0625 0.0078125 L 1.992188 -0.0078125 L 2.121094 0.0117188 L 2.78125 -0.0195312 L 2.894531 -0.0390625 L 3.253906 -0.140625 L 3.371094 -0.199219 L 3.625 -0.402344 L 3.796875 -0.640625 L 3.863281 -0.769531 L 3.902344 -0.890625 L 3.953125 -1.011719 L 3.964844 -1.53125 L 3.894531 -1.761719 L 3.78125 -2.023438 L 3.695312 -2.121094 L 3.59375 -2.210938 L 3.53125 -2.355469 L 3.574219 -2.480469 L 3.695312 -2.730469 L 3.773438 -2.960938 L 3.78125 -3.175781 L 3.765625 -3.375 L 3.714844 -3.605469 L 3.671875 -3.742188 L 3.460938 -4.035156 L 3.363281 -4.125 L 3.265625 -4.1875 L 3.175781 -4.261719 L 3.070312 -4.324219 L 2.945312 -4.382812 L 2.835938 -4.421875 L 2.589844 -4.476562 L 1.929688 -4.496094 L 1.8125 -4.472656 L 1.5625 -4.503906 L 1.449219 -4.476562 L 0.671875 -4.492188 L 0.53125 -4.425781 L 0.46875 -4.292969 L 0.46875 -4.152344 L 0.480469 -4.035156 L 0.472656 -3.902344 L 0.480469 -3.785156 L 0.46875 -3.40625 L 0.488281 -3.140625 L 0.460938 -1.914062 L 0.480469 -1.722656 L 0.46875 -0.320312 Z M 1.792969 -2.734375 L 1.660156 -2.8125 L 1.589844 -2.992188 L 1.582031 -3.210938 L 1.660156 -3.394531 L 1.78125 -3.472656 L 2.441406 -3.425781 L 2.542969 -3.375 L 2.59375 -3.273438 L 2.613281 -3.082031 L 2.570312 -2.894531 L 2.472656 -2.820312 L 2.285156 -2.753906 Z M 1.773438 -1.023438 L 1.660156 -1.070312 L 1.574219 -1.199219 L 1.59375 -1.582031 L 1.652344 -1.691406 L 1.761719 -1.773438 L 1.882812 -1.753906 L 2.019531 -1.769531 L 2.621094 -1.710938 L 2.730469 -1.664062 L 2.792969 -1.550781 L 2.832031 -1.390625 L 2.800781 -1.203125 L 2.730469 -1.113281 L 2.621094 -1.042969 L 2.269531 -1.011719 Z M 1.773438 -1.023438 "/></g></g></g><g fill="#8482e8" fill-opacity="1"><g transform="translate(27.01421, 36.734783)"><g><path d="M 2.230469 0.0195312 L 3.144531 0.0078125 L 3.28125 -0.0507812 L 3.351562 -0.1875 L 3.351562 -0.832031 L 3.28125 -0.960938 L 3.144531 -1.019531 L 2.996094 -1.003906 L 2.875 -1.023438 L 2.550781 -1.03125 L 2.339844 -1.003906 L 2.210938 -1.019531 L 2.070312 -1.011719 L 1.949219 -1.03125 L 1.804688 -1.019531 L 1.671875 -1.082031 L 1.621094 -1.199219 L 1.621094 -1.601562 L 1.679688 -1.734375 L 1.792969 -1.804688 L 1.984375 -1.8125 L 2.191406 -1.792969 L 2.433594 -1.804688 L 2.695312 -1.800781 L 2.824219 -1.8125 L 2.972656 -1.804688 L 3.101562 -1.859375 L 3.144531 -1.984375 L 3.164062 -2.5625 L 3.101562 -2.742188 L 2.953125 -2.824219 L 2.574219 -2.824219 L 2.441406 -2.8125 L 2.171875 -2.832031 L 1.800781 -2.820312 L 1.664062 -2.875 L 1.613281 -3.074219 L 1.613281 -3.273438 L 1.671875 -3.394531 L 1.8125 -3.445312 L 1.933594 -3.441406 L 2.054688 -3.464844 L 2.972656 -3.453125 L 3.09375 -3.460938 L 3.226562 -3.535156 L 3.292969 -3.652344 L 3.285156 -3.78125 L 3.292969 -3.90625 L 3.28125 -4.292969 L 3.222656 -4.414062 L 3.09375 -4.464844 L 2.960938 -4.464844 L 2.84375 -4.492188 L 2.324219 -4.484375 L 2.183594 -4.472656 L 2.054688 -4.484375 L 1.949219 -4.476562 L 1.820312 -4.492188 L 1.292969 -4.476562 L 1.164062 -4.496094 L 1.042969 -4.472656 L 0.929688 -4.484375 L 0.800781 -4.472656 L 0.671875 -4.476562 L 0.539062 -4.425781 L 0.46875 -4.292969 L 0.480469 -4.046875 L 0.460938 -3.785156 L 0.480469 -3.644531 L 0.46875 -3.015625 L 0.488281 -2.882812 L 0.472656 -2.761719 L 0.46875 -2.234375 L 0.488281 -2.121094 L 0.480469 -1.082031 L 0.46875 -0.960938 L 0.488281 -0.832031 L 0.46875 -0.390625 L 0.480469 -0.25 L 0.53125 -0.078125 L 0.722656 0.0078125 L 1.183594 0.0117188 L 1.324219 0 L 1.441406 0.0078125 L 1.703125 -0.0117188 L 1.824219 0.0117188 L 1.972656 0.0195312 L 2.101562 0.0078125 Z M 2.230469 0.0195312 "/></g></g></g><g fill="#8482e8" fill-opacity="1"><g transform="translate(30.684747, 36.734783)"><g><path d="M 1.671875 0.0117188 L 2.101562 0 L 2.285156 -0.0625 L 2.351562 -0.242188 L 2.371094 -0.578125 L 2.351562 -0.820312 L 2.363281 -0.953125 L 2.355469 -1.210938 L 2.371094 -1.324219 L 2.351562 -1.46875 L 2.363281 -2.5 L 2.34375 -2.632812 L 2.363281 -3.191406 L 2.414062 -3.382812 L 2.535156 -3.460938 L 2.785156 -3.472656 L 3.023438 -3.441406 L 3.15625 -3.460938 L 3.273438 -3.453125 L 3.382812 -3.523438 L 3.460938 -3.664062 L 3.464844 -4.273438 L 3.394531 -4.402344 L 3.273438 -4.484375 L 2.875 -4.484375 L 2.753906 -4.496094 L 2.621094 -4.476562 L 2.5 -4.492188 L 1.980469 -4.464844 L 1.851562 -4.492188 L 1.730469 -4.496094 L 1.59375 -4.476562 L 1.453125 -4.492188 L 1.339844 -4.464844 L 0.960938 -4.484375 L 0.761719 -4.464844 L 0.3125 -4.492188 L 0.191406 -4.425781 L 0.117188 -4.277344 L 0.121094 -4.152344 L 0.109375 -3.832031 L 0.121094 -3.632812 L 0.179688 -3.515625 L 0.292969 -3.453125 L 0.421875 -3.464844 L 1.03125 -3.453125 L 1.152344 -3.386719 L 1.222656 -3.261719 L 1.210938 -3.054688 L 1.222656 -2.875 L 1.21875 -2.734375 L 1.222656 -2.605469 L 1.210938 -2.429688 L 1.230469 -1.472656 L 1.21875 -1.34375 L 1.210938 -0.828125 L 1.222656 -0.691406 L 1.21875 -0.320312 L 1.203125 -0.199219 L 1.289062 -0.0585938 L 1.472656 0.0078125 Z M 1.671875 0.0117188 "/></g></g></g><g fill="#8482e8" fill-opacity="1"><g transform="translate(34.265604, 36.734783)"><g><path d="M 1.671875 0.0117188 L 2.101562 0 L 2.285156 -0.0625 L 2.351562 -0.242188 L 2.371094 -0.578125 L 2.351562 -0.820312 L 2.363281 -0.953125 L 2.355469 -1.210938 L 2.371094 -1.324219 L 2.351562 -1.46875 L 2.363281 -2.5 L 2.34375 -2.632812 L 2.363281 -3.191406 L 2.414062 -3.382812 L 2.535156 -3.460938 L 2.785156 -3.472656 L 3.023438 -3.441406 L 3.15625 -3.460938 L 3.273438 -3.453125 L 3.382812 -3.523438 L 3.460938 -3.664062 L 3.464844 -4.273438 L 3.394531 -4.402344 L 3.273438 -4.484375 L 2.875 -4.484375 L 2.753906 -4.496094 L 2.621094 -4.476562 L 2.5 -4.492188 L 1.980469 -4.464844 L 1.851562 -4.492188 L 1.730469 -4.496094 L 1.59375 -4.476562 L 1.453125 -4.492188 L 1.339844 -4.464844 L 0.960938 -4.484375 L 0.761719 -4.464844 L 0.3125 -4.492188 L 0.191406 -4.425781 L 0.117188 -4.277344 L 0.121094 -4.152344 L 0.109375 -3.832031 L 0.121094 -3.632812 L 0.179688 -3.515625 L 0.292969 -3.453125 L 0.421875 -3.464844 L 1.03125 -3.453125 L 1.152344 -3.386719 L 1.222656 -3.261719 L 1.210938 -3.054688 L 1.222656 -2.875 L 1.21875 -2.734375 L 1.222656 -2.605469 L 1.210938 -2.429688 L 1.230469 -1.472656 L 1.21875 -1.34375 L 1.210938 -0.828125 L 1.222656 -0.691406 L 1.21875 -0.320312 L 1.203125 -0.199219 L 1.289062 -0.0585938 L 1.472656 0.0078125 Z M 1.671875 0.0117188 "/></g></g></g><g fill="#8482e8" fill-opacity="1"><g transform="translate(37.846461, 36.734783)"><g><path d="M 2.230469 0.0195312 L 3.144531 0.0078125 L 3.28125 -0.0507812 L 3.351562 -0.1875 L 3.351562 -0.832031 L 3.28125 -0.960938 L 3.144531 -1.019531 L 2.996094 -1.003906 L 2.875 -1.023438 L 2.550781 -1.03125 L 2.339844 -1.003906 L 2.210938 -1.019531 L 2.070312 -1.011719 L 1.949219 -1.03125 L 1.804688 -1.019531 L 1.671875 -1.082031 L 1.621094 -1.199219 L 1.621094 -1.601562 L 1.679688 -1.734375 L 1.792969 -1.804688 L 1.984375 -1.8125 L 2.191406 -1.792969 L 2.433594 -1.804688 L 2.695312 -1.800781 L 2.824219 -1.8125 L 2.972656 -1.804688 L 3.101562 -1.859375 L 3.144531 -1.984375 L 3.164062 -2.5625 L 3.101562 -2.742188 L 2.953125 -2.824219 L 2.574219 -2.824219 L 2.441406 -2.8125 L 2.171875 -2.832031 L 1.800781 -2.820312 L 1.664062 -2.875 L 1.613281 -3.074219 L 1.613281 -3.273438 L 1.671875 -3.394531 L 1.8125 -3.445312 L 1.933594 -3.441406 L 2.054688 -3.464844 L 2.972656 -3.453125 L 3.09375 -3.460938 L 3.226562 -3.535156 L 3.292969 -3.652344 L 3.285156 -3.78125 L 3.292969 -3.90625 L 3.28125 -4.292969 L 3.222656 -4.414062 L 3.09375 -4.464844 L 2.960938 -4.464844 L 2.84375 -4.492188 L 2.324219 -4.484375 L 2.183594 -4.472656 L 2.054688 -4.484375 L 1.949219 -4.476562 L 1.820312 -4.492188 L 1.292969 -4.476562 L 1.164062 -4.496094 L 1.042969 -4.472656 L 0.929688 -4.484375 L 0.800781 -4.472656 L 0.671875 -4.476562 L 0.539062 -4.425781 L 0.46875 -4.292969 L 0.480469 -4.046875 L 0.460938 -3.785156 L 0.480469 -3.644531 L 0.46875 -3.015625 L 0.488281 -2.882812 L 0.472656 -2.761719 L 0.46875 -2.234375 L 0.488281 -2.121094 L 0.480469 -1.082031 L 0.46875 -0.960938 L 0.488281 -0.832031 L 0.46875 -0.390625 L 0.480469 -0.25 L 0.53125 -0.078125 L 0.722656 0.0078125 L 1.183594 0.0117188 L 1.324219 0 L 1.441406 0.0078125 L 1.703125 -0.0117188 L 1.824219 0.0117188 L 1.972656 0.0195312 L 2.101562 0.0078125 Z M 2.230469 0.0195312 "/></g></g></g><g fill="#8482e8" fill-opacity="1"><g transform="translate(41.516998, 36.734783)"><g><path d="M 0.480469 -0.261719 L 0.542969 -0.0625 L 0.730469 0.0195312 L 0.859375 0 L 1.0625 0.0195312 L 1.164062 0.0078125 L 1.359375 0.0078125 L 1.5625 -0.0585938 L 1.621094 -0.242188 L 1.621094 -0.460938 L 1.632812 -0.578125 L 1.613281 -0.710938 L 1.628906 -1.121094 L 1.683594 -1.25 L 1.804688 -1.320312 L 2.179688 -1.269531 L 2.304688 -1.160156 L 2.382812 -1.03125 L 2.433594 -0.917969 L 2.570312 -0.722656 L 2.691406 -0.492188 L 2.761719 -0.398438 L 2.8125 -0.269531 L 2.882812 -0.160156 L 3.023438 -0.0429688 L 3.242188 0.0117188 L 3.746094 0.0078125 L 3.867188 0.0195312 L 4.082031 0.0117188 L 4.203125 -0.0429688 L 4.242188 -0.1875 L 4.171875 -0.328125 L 4.09375 -0.417969 L 4.042969 -0.539062 L 3.824219 -0.863281 L 3.765625 -0.980469 L 3.5625 -1.3125 L 3.484375 -1.410156 L 3.476562 -1.5625 L 3.535156 -1.703125 L 3.625 -1.800781 L 3.714844 -1.875 L 3.964844 -2.324219 L 4.046875 -2.695312 L 4.035156 -3.101562 L 4.015625 -3.226562 L 3.902344 -3.59375 L 3.851562 -3.703125 L 3.78125 -3.804688 L 3.414062 -4.1875 L 3.191406 -4.3125 L 2.945312 -4.394531 L 2.582031 -4.476562 L 2.375 -4.484375 L 2.191406 -4.472656 L 1.804688 -4.472656 L 1.679688 -4.496094 L 1.550781 -4.496094 L 1.433594 -4.464844 L 1.308594 -4.464844 L 1.179688 -4.492188 L 1.039062 -4.496094 L 0.660156 -4.464844 L 0.542969 -4.402344 L 0.46875 -4.222656 L 0.472656 -2.753906 L 0.488281 -2.625 L 0.46875 -2.371094 L 0.472656 -2.230469 L 0.472656 -2.101562 L 0.488281 -1.980469 L 0.472656 -1.859375 L 0.46875 -1.339844 L 0.480469 -1.210938 Z M 1.804688 -2.34375 L 1.679688 -2.414062 L 1.628906 -2.515625 L 1.628906 -2.902344 L 1.613281 -3.011719 L 1.628906 -3.28125 L 1.683594 -3.402344 L 1.820312 -3.453125 L 1.949219 -3.445312 L 2.203125 -3.472656 L 2.382812 -3.433594 L 2.550781 -3.421875 L 2.671875 -3.386719 L 2.832031 -3.191406 L 2.871094 -3.085938 L 2.894531 -2.921875 L 2.875 -2.730469 L 2.820312 -2.601562 L 2.75 -2.503906 L 2.675781 -2.445312 L 2.5625 -2.394531 L 2.375 -2.351562 L 2.253906 -2.34375 L 1.949219 -2.355469 Z M 1.804688 -2.34375 "/></g></g></g><g fill="#8482e8" fill-opacity="1"><g transform="translate(45.96264, 36.734783)"><g/></g></g><g fill="#8482e8" fill-opacity="1"><g transform="translate(47.69862, 36.734783)"><g><path d="M 1.972656 0.0195312 L 2.164062 0.0195312 L 2.363281 -0.0078125 L 2.492188 -0.0078125 L 2.675781 -0.0625 L 2.941406 -0.109375 L 3.242188 -0.238281 L 3.671875 -0.523438 L 3.984375 -0.929688 L 4.046875 -1.058594 L 4.125 -1.160156 L 4.226562 -1.410156 L 4.261719 -1.53125 L 4.285156 -1.664062 L 4.324219 -1.773438 L 4.34375 -1.902344 L 4.34375 -2.035156 L 4.363281 -2.242188 L 4.355469 -2.429688 L 4.265625 -2.933594 L 4.183594 -3.175781 L 4.132812 -3.300781 L 3.914062 -3.636719 L 3.574219 -4.015625 L 3.246094 -4.234375 L 3.125 -4.304688 L 2.996094 -4.332031 L 2.890625 -4.382812 L 2.753906 -4.414062 L 2.375 -4.472656 L 0.917969 -4.484375 L 0.800781 -4.464844 L 0.671875 -4.472656 L 0.53125 -4.414062 L 0.472656 -4.277344 L 0.46875 -0.699219 L 0.480469 -0.578125 L 0.480469 -0.25 L 0.542969 -0.0507812 L 0.671875 0.0117188 L 0.800781 0 L 1.582031 0.0117188 L 1.710938 -0.0078125 Z M 1.953125 -1.03125 L 1.832031 -1.042969 L 1.683594 -1.113281 L 1.632812 -1.234375 L 1.628906 -1.34375 L 1.632812 -1.609375 L 1.609375 -1.921875 L 1.632812 -2.242188 L 1.621094 -3.125 L 1.632812 -3.234375 L 1.699219 -3.382812 L 1.902344 -3.425781 L 2.171875 -3.433594 L 2.355469 -3.414062 L 2.605469 -3.34375 L 2.722656 -3.285156 L 2.820312 -3.214844 L 2.914062 -3.125 L 3.011719 -3.011719 L 3.074219 -2.902344 L 3.132812 -2.785156 L 3.234375 -2.222656 L 3.171875 -1.773438 L 3.0625 -1.539062 L 2.824219 -1.269531 L 2.605469 -1.128906 L 2.421875 -1.070312 L 2.144531 -1.039062 Z M 1.953125 -1.03125 "/></g></g></g><g fill="#8482e8" fill-opacity="1"><g transform="translate(52.355651, 36.734783)"><g><path d="M 2.144531 0.0273438 L 2.402344 0.0117188 L 2.515625 -0.0507812 L 2.582031 -0.171875 L 2.582031 -0.808594 L 2.503906 -0.929688 L 2.363281 -1 L 2.230469 -1 L 2.074219 -1.050781 L 2 -1.199219 L 2.019531 -1.320312 L 2.011719 -2.023438 L 2.023438 -2.164062 L 2 -2.625 L 2.023438 -3.273438 L 2.070312 -3.421875 L 2.210938 -3.476562 L 2.339844 -3.496094 L 2.472656 -3.546875 L 2.535156 -3.652344 L 2.542969 -4.285156 L 2.464844 -4.40625 L 2.351562 -4.476562 L 1.574219 -4.476562 L 1.460938 -4.492188 L 1.332031 -4.464844 L 0.808594 -4.464844 L 0.683594 -4.484375 L 0.539062 -4.484375 L 0.410156 -4.421875 L 0.347656 -4.265625 L 0.363281 -3.792969 L 0.351562 -3.671875 L 0.421875 -3.542969 L 0.5625 -3.472656 L 0.691406 -3.472656 L 0.8125 -3.394531 L 0.871094 -3.222656 L 0.890625 -1.253906 L 0.820312 -1.0625 L 0.398438 -0.933594 L 0.328125 -0.820312 L 0.308594 -0.230469 L 0.371094 -0.0585938 L 0.5 0 L 0.621094 0 L 0.742188 -0.0117188 L 0.929688 0.0117188 L 1.128906 0.0078125 L 1.253906 -0.0078125 L 1.511719 0.0195312 L 1.703125 -0.0078125 L 2.019531 -0.0078125 Z M 2.144531 0.0273438 "/></g></g></g><g fill="#8482e8" fill-opacity="1"><g transform="translate(55.263896, 36.734783)"><g><path d="M 2.222656 0.0625 L 2.863281 0.0625 L 3.34375 -0.0507812 L 3.796875 -0.28125 L 3.996094 -0.4375 L 4.09375 -0.539062 L 4.1875 -0.613281 L 4.265625 -0.703125 L 4.332031 -0.8125 L 4.386719 -0.929688 L 4.464844 -1.019531 L 4.59375 -1.394531 L 4.644531 -1.640625 L 4.652344 -1.75 L 4.675781 -1.863281 L 4.675781 -1.992188 L 4.6875 -2.113281 L 4.675781 -2.355469 L 4.613281 -2.464844 L 4.492188 -2.53125 L 4.355469 -2.535156 L 4.222656 -2.554688 L 3.355469 -2.535156 L 2.972656 -2.5625 L 2.730469 -2.542969 L 2.601562 -2.480469 L 2.542969 -2.355469 L 2.542969 -1.75 L 2.601562 -1.644531 L 2.714844 -1.574219 L 2.902344 -1.5625 L 3.222656 -1.589844 L 3.335938 -1.570312 L 3.433594 -1.523438 L 3.453125 -1.414062 L 3.386719 -1.308594 L 3.292969 -1.199219 L 3.203125 -1.128906 L 2.992188 -1.042969 L 2.742188 -0.988281 L 2.574219 -0.980469 L 2.25 -1.019531 L 1.902344 -1.160156 L 1.710938 -1.339844 L 1.640625 -1.429688 L 1.519531 -1.660156 L 1.46875 -1.84375 L 1.433594 -2.050781 L 1.429688 -2.421875 L 1.472656 -2.671875 L 1.574219 -2.902344 L 1.773438 -3.203125 L 2 -3.363281 L 2.109375 -3.421875 L 2.230469 -3.433594 L 2.339844 -3.484375 L 2.730469 -3.496094 L 2.964844 -3.433594 L 3.085938 -3.382812 L 3.210938 -3.300781 L 3.285156 -3.214844 L 3.371094 -3.105469 L 3.503906 -2.996094 L 3.65625 -2.953125 L 3.855469 -2.945312 L 4.046875 -2.972656 L 4.355469 -2.953125 L 4.515625 -3.023438 L 4.554688 -3.132812 L 4.464844 -3.394531 L 4.40625 -3.511719 L 4.152344 -3.882812 L 4.011719 -3.996094 L 3.90625 -4.09375 L 3.8125 -4.171875 L 3.363281 -4.40625 L 3.226562 -4.433594 L 2.925781 -4.515625 L 2.332031 -4.542969 L 2.203125 -4.535156 L 2.09375 -4.496094 L 1.972656 -4.492188 L 1.480469 -4.3125 L 1.128906 -4.09375 L 0.84375 -3.84375 L 0.761719 -3.742188 L 0.667969 -3.644531 L 0.597656 -3.546875 L 0.359375 -3.070312 L 0.242188 -2.433594 L 0.238281 -2.230469 L 0.269531 -1.78125 L 0.449219 -1.179688 L 0.5625 -0.960938 L 0.710938 -0.742188 L 0.96875 -0.472656 L 1.179688 -0.328125 L 1.621094 -0.0703125 L 1.730469 -0.0390625 L 2.09375 0.0273438 Z M 2.222656 0.0625 "/></g></g></g><g fill="#8482e8" fill-opacity="1"><g transform="translate(60.170753, 36.734783)"><g><path d="M 2.144531 0.0273438 L 2.402344 0.0117188 L 2.515625 -0.0507812 L 2.582031 -0.171875 L 2.582031 -0.808594 L 2.503906 -0.929688 L 2.363281 -1 L 2.230469 -1 L 2.074219 -1.050781 L 2 -1.199219 L 2.019531 -1.320312 L 2.011719 -2.023438 L 2.023438 -2.164062 L 2 -2.625 L 2.023438 -3.273438 L 2.070312 -3.421875 L 2.210938 -3.476562 L 2.339844 -3.496094 L 2.472656 -3.546875 L 2.535156 -3.652344 L 2.542969 -4.285156 L 2.464844 -4.40625 L 2.351562 -4.476562 L 1.574219 -4.476562 L 1.460938 -4.492188 L 1.332031 -4.464844 L 0.808594 -4.464844 L 0.683594 -4.484375 L 0.539062 -4.484375 L 0.410156 -4.421875 L 0.347656 -4.265625 L 0.363281 -3.792969 L 0.351562 -3.671875 L 0.421875 -3.542969 L 0.5625 -3.472656 L 0.691406 -3.472656 L 0.8125 -3.394531 L 0.871094 -3.222656 L 0.890625 -1.253906 L 0.820312 -1.0625 L 0.398438 -0.933594 L 0.328125 -0.820312 L 0.308594 -0.230469 L 0.371094 -0.0585938 L 0.5 0 L 0.621094 0 L 0.742188 -0.0117188 L 0.929688 0.0117188 L 1.128906 0.0078125 L 1.253906 -0.0078125 L 1.511719 0.0195312 L 1.703125 -0.0078125 L 2.019531 -0.0078125 Z M 2.144531 0.0273438 "/></g></g></g><g fill="#8482e8" fill-opacity="1"><g transform="translate(63.078998, 36.734783)"><g><path d="M 1.671875 0.0117188 L 2.101562 0 L 2.285156 -0.0625 L 2.351562 -0.242188 L 2.371094 -0.578125 L 2.351562 -0.820312 L 2.363281 -0.953125 L 2.355469 -1.210938 L 2.371094 -1.324219 L 2.351562 -1.46875 L 2.363281 -2.5 L 2.34375 -2.632812 L 2.363281 -3.191406 L 2.414062 -3.382812 L 2.535156 -3.460938 L 2.785156 -3.472656 L 3.023438 -3.441406 L 3.15625 -3.460938 L 3.273438 -3.453125 L 3.382812 -3.523438 L 3.460938 -3.664062 L 3.464844 -4.273438 L 3.394531 -4.402344 L 3.273438 -4.484375 L 2.875 -4.484375 L 2.753906 -4.496094 L 2.621094 -4.476562 L 2.5 -4.492188 L 1.980469 -4.464844 L 1.851562 -4.492188 L 1.730469 -4.496094 L 1.59375 -4.476562 L 1.453125 -4.492188 L 1.339844 -4.464844 L 0.960938 -4.484375 L 0.761719 -4.464844 L 0.3125 -4.492188 L 0.191406 -4.425781 L 0.117188 -4.277344 L 0.121094 -4.152344 L 0.109375 -3.832031 L 0.121094 -3.632812 L 0.179688 -3.515625 L 0.292969 -3.453125 L 0.421875 -3.464844 L 1.03125 -3.453125 L 1.152344 -3.386719 L 1.222656 -3.261719 L 1.210938 -3.054688 L 1.222656 -2.875 L 1.21875 -2.734375 L 1.222656 -2.605469 L 1.210938 -2.429688 L 1.230469 -1.472656 L 1.21875 -1.34375 L 1.210938 -0.828125 L 1.222656 -0.691406 L 1.21875 -0.320312 L 1.203125 -0.199219 L 1.289062 -0.0585938 L 1.472656 0.0078125 Z M 1.671875 0.0117188 "/></g></g></g><g fill="#8482e8" fill-opacity="1"><g transform="translate(66.659854, 36.734783)"><g><path d="M 3.78125 0.0117188 L 4.023438 -0.0078125 L 4.144531 0.0078125 L 4.34375 0 L 4.523438 -0.03125 L 4.542969 -0.1875 L 4.496094 -0.332031 L 4.402344 -0.570312 L 4.226562 -0.902344 L 4.136719 -1.140625 L 4.011719 -1.371094 L 3.765625 -1.953125 L 3.703125 -2.050781 L 3.636719 -2.171875 L 3.601562 -2.3125 L 3.542969 -2.410156 L 3.503906 -2.511719 L 3.371094 -2.75 L 3.324219 -2.882812 L 2.902344 -3.773438 L 2.863281 -3.902344 L 2.792969 -4.015625 L 2.753906 -4.132812 L 2.632812 -4.355469 L 2.523438 -4.472656 L 2.3125 -4.535156 L 2.109375 -4.464844 L 1.992188 -4.355469 L 1.933594 -4.246094 L 1.890625 -4.117188 L 1.832031 -4.027344 L 1.574219 -3.441406 L 1.503906 -3.34375 L 1.472656 -3.214844 L 1.402344 -3.09375 L 1.363281 -2.980469 L 0.710938 -1.609375 L 0.671875 -1.46875 L 0.609375 -1.371094 L 0.5625 -1.242188 L 0.449219 -1.039062 L 0.351562 -0.78125 L 0.28125 -0.691406 L 0.25 -0.578125 L 0.121094 -0.320312 L 0.0820312 -0.191406 L 0.117188 -0.03125 L 0.242188 0.0078125 L 0.492188 -0.0078125 L 0.621094 0.0078125 L 0.980469 -0.0078125 L 1.128906 -0.0507812 L 1.25 -0.167969 L 1.363281 -0.378906 L 1.484375 -0.5 L 1.621094 -0.570312 L 1.742188 -0.550781 L 2.011719 -0.578125 L 2.125 -0.558594 L 2.753906 -0.5625 L 2.871094 -0.550781 L 3.011719 -0.570312 L 3.152344 -0.5 L 3.273438 -0.398438 L 3.332031 -0.277344 L 3.371094 -0.160156 L 3.496094 -0.0625 L 3.644531 0 Z M 2.324219 -1.582031 L 2.195312 -1.609375 L 2.050781 -1.59375 L 1.949219 -1.640625 L 1.941406 -1.761719 L 2.242188 -2.453125 L 2.3125 -2.511719 L 2.402344 -2.460938 L 2.703125 -1.753906 L 2.675781 -1.640625 L 2.582031 -1.589844 Z M 2.324219 -1.582031 "/></g></g></g><g fill="#8482e8" fill-opacity="1"><g transform="translate(71.310483, 36.734783)"><g><path d="M 0.488281 -0.230469 L 0.53125 -0.0625 L 0.652344 0 L 0.78125 0.0117188 L 1.050781 -0.0078125 L 1.300781 0.0078125 L 1.542969 -0.0078125 L 1.664062 0.0117188 L 1.804688 0 L 3.074219 0.0078125 L 3.195312 -0.0585938 L 3.265625 -0.257812 L 3.261719 -0.773438 L 3.203125 -0.96875 L 3.085938 -1.042969 L 2.953125 -1.03125 L 2.832031 -1.003906 L 2.695312 -1.023438 L 2.433594 -1.019531 L 2.304688 -1.042969 L 2.191406 -1.023438 L 1.941406 -1.039062 L 1.804688 -1.023438 L 1.679688 -1.074219 L 1.628906 -1.203125 L 1.632812 -3.375 L 1.621094 -3.53125 L 1.632812 -3.785156 L 1.613281 -4.152344 L 1.621094 -4.273438 L 1.554688 -4.414062 L 1.429688 -4.492188 L 1.179688 -4.492188 L 1.050781 -4.464844 L 0.792969 -4.492188 L 0.671875 -4.472656 L 0.539062 -4.421875 L 0.480469 -4.277344 L 0.480469 -3.382812 L 0.46875 -3.261719 L 0.480469 -3.132812 L 0.460938 -2.894531 L 0.46875 -2.753906 L 0.480469 -2.632812 Z M 0.488281 -0.230469 "/></g></g></g><g fill="#8482e8" fill-opacity="1"><g transform="translate(74.75681, 36.734783)"><g/></g></g><g fill="#8482e8" fill-opacity="1"><g transform="translate(76.492791, 36.734783)"><g><path d="M 2.230469 0.0195312 L 3.144531 0.0078125 L 3.28125 -0.0507812 L 3.351562 -0.1875 L 3.351562 -0.832031 L 3.28125 -0.960938 L 3.144531 -1.019531 L 2.996094 -1.003906 L 2.875 -1.023438 L 2.550781 -1.03125 L 2.339844 -1.003906 L 2.210938 -1.019531 L 2.070312 -1.011719 L 1.949219 -1.03125 L 1.804688 -1.019531 L 1.671875 -1.082031 L 1.621094 -1.199219 L 1.621094 -1.601562 L 1.679688 -1.734375 L 1.792969 -1.804688 L 1.984375 -1.8125 L 2.191406 -1.792969 L 2.433594 -1.804688 L 2.695312 -1.800781 L 2.824219 -1.8125 L 2.972656 -1.804688 L 3.101562 -1.859375 L 3.144531 -1.984375 L 3.164062 -2.5625 L 3.101562 -2.742188 L 2.953125 -2.824219 L 2.574219 -2.824219 L 2.441406 -2.8125 L 2.171875 -2.832031 L 1.800781 -2.820312 L 1.664062 -2.875 L 1.613281 -3.074219 L 1.613281 -3.273438 L 1.671875 -3.394531 L 1.8125 -3.445312 L 1.933594 -3.441406 L 2.054688 -3.464844 L 2.972656 -3.453125 L 3.09375 -3.460938 L 3.226562 -3.535156 L 3.292969 -3.652344 L 3.285156 -3.78125 L 3.292969 -3.90625 L 3.28125 -4.292969 L 3.222656 -4.414062 L 3.09375 -4.464844 L 2.960938 -4.464844 L 2.84375 -4.492188 L 2.324219 -4.484375 L 2.183594 -4.472656 L 2.054688 -4.484375 L 1.949219 -4.476562 L 1.820312 -4.492188 L 1.292969 -4.476562 L 1.164062 -4.496094 L 1.042969 -4.472656 L 0.929688 -4.484375 L 0.800781 -4.472656 L 0.671875 -4.476562 L 0.539062 -4.425781 L 0.46875 -4.292969 L 0.480469 -4.046875 L 0.460938 -3.785156 L 0.480469 -3.644531 L 0.46875 -3.015625 L 0.488281 -2.882812 L 0.472656 -2.761719 L 0.46875 -2.234375 L 0.488281 -2.121094 L 0.480469 -1.082031 L 0.46875 -0.960938 L 0.488281 -0.832031 L 0.46875 -0.390625 L 0.480469 -0.25 L 0.53125 -0.078125 L 0.722656 0.0078125 L 1.183594 0.0117188 L 1.324219 0 L 1.441406 0.0078125 L 1.703125 -0.0117188 L 1.824219 0.0117188 L 1.972656 0.0195312 L 2.101562 0.0078125 Z M 2.230469 0.0195312 "/></g></g></g><g fill="#8482e8" fill-opacity="1"><g transform="translate(80.163328, 36.734783)"><g><path d="M 0.0820312 -0.160156 L 0.101562 -0.03125 L 0.21875 0.0117188 L 0.890625 0.0078125 L 1.082031 -0.0117188 L 1.230469 -0.0585938 L 1.371094 -0.160156 L 1.421875 -0.261719 L 1.492188 -0.359375 L 1.550781 -0.488281 L 1.734375 -0.800781 L 1.792969 -0.921875 L 1.875 -1.003906 L 2 -1.25 L 2.070312 -1.34375 L 2.144531 -1.339844 L 2.222656 -1.242188 L 2.863281 -0.167969 L 2.984375 -0.0429688 L 3.140625 0.0273438 L 3.875 -0.0117188 L 4.003906 0.0078125 L 4.132812 -0.0273438 L 4.152344 -0.171875 L 4.074219 -0.332031 L 3.933594 -0.539062 L 3.875 -0.648438 L 3.652344 -0.953125 L 3.605469 -1.039062 L 3.523438 -1.152344 L 3.402344 -1.378906 L 3.210938 -1.628906 L 2.914062 -2.121094 L 2.835938 -2.214844 L 2.800781 -2.375 L 2.832031 -2.53125 L 2.921875 -2.644531 L 3.050781 -2.84375 L 3.113281 -2.964844 L 3.566406 -3.613281 L 3.625 -3.726562 L 3.996094 -4.304688 L 3.964844 -4.4375 L 3.824219 -4.484375 L 3.621094 -4.472656 L 3.15625 -4.492188 L 3.035156 -4.476562 L 2.882812 -4.421875 L 2.734375 -4.324219 L 2.683594 -4.203125 L 2.472656 -3.90625 L 2.429688 -3.78125 L 2.140625 -3.375 L 2.050781 -3.355469 L 1.984375 -3.460938 L 1.921875 -3.585938 L 1.851562 -3.671875 L 1.804688 -3.785156 L 1.480469 -4.3125 L 1.34375 -4.421875 L 1.191406 -4.492188 L 1.050781 -4.472656 L 0.921875 -4.472656 L 0.773438 -4.492188 L 0.578125 -4.464844 L 0.382812 -4.472656 L 0.238281 -4.433594 L 0.222656 -4.292969 L 0.289062 -4.152344 L 0.449219 -3.941406 L 0.550781 -3.753906 L 0.730469 -3.503906 L 0.863281 -3.273438 L 0.941406 -3.175781 L 1.011719 -3.054688 L 1.089844 -2.960938 L 1.21875 -2.742188 L 1.308594 -2.625 L 1.363281 -2.53125 L 1.402344 -2.355469 L 1.378906 -2.214844 L 1.230469 -2.003906 L 1.101562 -1.773438 L 1.039062 -1.699219 L 0.972656 -1.582031 L 0.890625 -1.5 L 0.761719 -1.269531 L 0.683594 -1.171875 L 0.480469 -0.832031 L 0.339844 -0.640625 L 0.277344 -0.519531 L 0.203125 -0.429688 L 0.140625 -0.308594 Z M 0.0820312 -0.160156 "/></g></g></g><g fill="#8482e8" fill-opacity="1"><g transform="translate(84.410386, 36.734783)"><g><path d="M 0.859375 0.0195312 L 1.171875 0.0078125 L 1.289062 0.0117188 L 1.433594 0 L 1.570312 -0.0507812 L 1.628906 -0.1875 L 1.621094 -0.3125 L 1.628906 -0.453125 L 1.613281 -0.691406 L 1.628906 -0.8125 L 1.621094 -0.960938 L 1.679688 -1.074219 L 1.824219 -1.148438 L 1.964844 -1.160156 L 2.101562 -1.132812 L 2.761719 -1.183594 L 3.371094 -1.429688 L 3.464844 -1.503906 L 3.554688 -1.609375 L 3.636719 -1.691406 L 3.722656 -1.789062 L 3.855469 -1.992188 L 3.964844 -2.242188 L 3.984375 -2.382812 L 4.023438 -2.484375 L 4.035156 -3.011719 L 4.011719 -3.121094 L 3.992188 -3.261719 L 3.914062 -3.496094 L 3.792969 -3.714844 L 3.636719 -3.925781 L 3.351562 -4.175781 L 3.140625 -4.316406 L 2.882812 -4.394531 L 2.773438 -4.4375 L 2.644531 -4.4375 L 2.515625 -4.484375 L 2.324219 -4.492188 L 2.121094 -4.484375 L 1.980469 -4.464844 L 1.589844 -4.472656 L 1.460938 -4.492188 L 1.0625 -4.464844 L 0.921875 -4.472656 L 0.808594 -4.492188 L 0.671875 -4.464844 L 0.539062 -4.394531 L 0.480469 -4.292969 L 0.488281 -3.515625 L 0.460938 -3.261719 L 0.472656 -3.140625 L 0.46875 -1.480469 L 0.480469 -1.359375 L 0.472656 -0.171875 L 0.542969 -0.0507812 L 0.742188 0.0117188 Z M 1.820312 -2.171875 L 1.691406 -2.25 L 1.632812 -2.355469 L 1.613281 -2.875 L 1.628906 -3.011719 L 1.628906 -3.273438 L 1.691406 -3.394531 L 1.824219 -3.460938 L 2.492188 -3.441406 L 2.621094 -3.382812 L 2.722656 -3.3125 L 2.804688 -3.226562 L 2.871094 -3.101562 L 2.890625 -2.984375 L 2.902344 -2.804688 L 2.890625 -2.632812 L 2.84375 -2.515625 L 2.785156 -2.414062 L 2.703125 -2.3125 L 2.601562 -2.234375 L 2.5 -2.203125 L 2.300781 -2.179688 L 1.972656 -2.183594 Z M 1.820312 -2.171875 "/></g></g></g><g fill="#8482e8" fill-opacity="1"><g transform="translate(88.625416, 36.734783)"><g><path d="M 2.230469 0.0195312 L 3.144531 0.0078125 L 3.28125 -0.0507812 L 3.351562 -0.1875 L 3.351562 -0.832031 L 3.28125 -0.960938 L 3.144531 -1.019531 L 2.996094 -1.003906 L 2.875 -1.023438 L 2.550781 -1.03125 L 2.339844 -1.003906 L 2.210938 -1.019531 L 2.070312 -1.011719 L 1.949219 -1.03125 L 1.804688 -1.019531 L 1.671875 -1.082031 L 1.621094 -1.199219 L 1.621094 -1.601562 L 1.679688 -1.734375 L 1.792969 -1.804688 L 1.984375 -1.8125 L 2.191406 -1.792969 L 2.433594 -1.804688 L 2.695312 -1.800781 L 2.824219 -1.8125 L 2.972656 -1.804688 L 3.101562 -1.859375 L 3.144531 -1.984375 L 3.164062 -2.5625 L 3.101562 -2.742188 L 2.953125 -2.824219 L 2.574219 -2.824219 L 2.441406 -2.8125 L 2.171875 -2.832031 L 1.800781 -2.820312 L 1.664062 -2.875 L 1.613281 -3.074219 L 1.613281 -3.273438 L 1.671875 -3.394531 L 1.8125 -3.445312 L 1.933594 -3.441406 L 2.054688 -3.464844 L 2.972656 -3.453125 L 3.09375 -3.460938 L 3.226562 -3.535156 L 3.292969 -3.652344 L 3.285156 -3.78125 L 3.292969 -3.90625 L 3.28125 -4.292969 L 3.222656 -4.414062 L 3.09375 -4.464844 L 2.960938 -4.464844 L 2.84375 -4.492188 L 2.324219 -4.484375 L 2.183594 -4.472656 L 2.054688 -4.484375 L 1.949219 -4.476562 L 1.820312 -4.492188 L 1.292969 -4.476562 L 1.164062 -4.496094 L 1.042969 -4.472656 L 0.929688 -4.484375 L 0.800781 -4.472656 L 0.671875 -4.476562 L 0.539062 -4.425781 L 0.46875 -4.292969 L 0.480469 -4.046875 L 0.460938 -3.785156 L 0.480469 -3.644531 L 0.46875 -3.015625 L 0.488281 -2.882812 L 0.472656 -2.761719 L 0.46875 -2.234375 L 0.488281 -2.121094 L 0.480469 -1.082031 L 0.46875 -0.960938 L 0.488281 -0.832031 L 0.46875 -0.390625 L 0.480469 -0.25 L 0.53125 -0.078125 L 0.722656 0.0078125 L 1.183594 0.0117188 L 1.324219 0 L 1.441406 0.0078125 L 1.703125 -0.0117188 L 1.824219 0.0117188 L 1.972656 0.0195312 L 2.101562 0.0078125 Z M 2.230469 0.0195312 "/></g></g></g><g fill="#8482e8" fill-opacity="1"><g transform="translate(92.295954, 36.734783)"><g><path d="M 0.480469 -0.261719 L 0.542969 -0.0625 L 0.730469 0.0195312 L 0.859375 0 L 1.0625 0.0195312 L 1.164062 0.0078125 L 1.359375 0.0078125 L 1.5625 -0.0585938 L 1.621094 -0.242188 L 1.621094 -0.460938 L 1.632812 -0.578125 L 1.613281 -0.710938 L 1.628906 -1.121094 L 1.683594 -1.25 L 1.804688 -1.320312 L 2.179688 -1.269531 L 2.304688 -1.160156 L 2.382812 -1.03125 L 2.433594 -0.917969 L 2.570312 -0.722656 L 2.691406 -0.492188 L 2.761719 -0.398438 L 2.8125 -0.269531 L 2.882812 -0.160156 L 3.023438 -0.0429688 L 3.242188 0.0117188 L 3.746094 0.0078125 L 3.867188 0.0195312 L 4.082031 0.0117188 L 4.203125 -0.0429688 L 4.242188 -0.1875 L 4.171875 -0.328125 L 4.09375 -0.417969 L 4.042969 -0.539062 L 3.824219 -0.863281 L 3.765625 -0.980469 L 3.5625 -1.3125 L 3.484375 -1.410156 L 3.476562 -1.5625 L 3.535156 -1.703125 L 3.625 -1.800781 L 3.714844 -1.875 L 3.964844 -2.324219 L 4.046875 -2.695312 L 4.035156 -3.101562 L 4.015625 -3.226562 L 3.902344 -3.59375 L 3.851562 -3.703125 L 3.78125 -3.804688 L 3.414062 -4.1875 L 3.191406 -4.3125 L 2.945312 -4.394531 L 2.582031 -4.476562 L 2.375 -4.484375 L 2.191406 -4.472656 L 1.804688 -4.472656 L 1.679688 -4.496094 L 1.550781 -4.496094 L 1.433594 -4.464844 L 1.308594 -4.464844 L 1.179688 -4.492188 L 1.039062 -4.496094 L 0.660156 -4.464844 L 0.542969 -4.402344 L 0.46875 -4.222656 L 0.472656 -2.753906 L 0.488281 -2.625 L 0.46875 -2.371094 L 0.472656 -2.230469 L 0.472656 -2.101562 L 0.488281 -1.980469 L 0.472656 -1.859375 L 0.46875 -1.339844 L 0.480469 -1.210938 Z M 1.804688 -2.34375 L 1.679688 -2.414062 L 1.628906 -2.515625 L 1.628906 -2.902344 L 1.613281 -3.011719 L 1.628906 -3.28125 L 1.683594 -3.402344 L 1.820312 -3.453125 L 1.949219 -3.445312 L 2.203125 -3.472656 L 2.382812 -3.433594 L 2.550781 -3.421875 L 2.671875 -3.386719 L 2.832031 -3.191406 L 2.871094 -3.085938 L 2.894531 -2.921875 L 2.875 -2.730469 L 2.820312 -2.601562 L 2.75 -2.503906 L 2.675781 -2.445312 L 2.5625 -2.394531 L 2.375 -2.351562 L 2.253906 -2.34375 L 1.949219 -2.355469 Z M 1.804688 -2.34375 "/></g></g></g><g fill="#8482e8" fill-opacity="1"><g transform="translate(96.741595, 36.734783)"><g><path d="M 2.144531 0.0273438 L 2.402344 0.0117188 L 2.515625 -0.0507812 L 2.582031 -0.171875 L 2.582031 -0.808594 L 2.503906 -0.929688 L 2.363281 -1 L 2.230469 -1 L 2.074219 -1.050781 L 2 -1.199219 L 2.019531 -1.320312 L 2.011719 -2.023438 L 2.023438 -2.164062 L 2 -2.625 L 2.023438 -3.273438 L 2.070312 -3.421875 L 2.210938 -3.476562 L 2.339844 -3.496094 L 2.472656 -3.546875 L 2.535156 -3.652344 L 2.542969 -4.285156 L 2.464844 -4.40625 L 2.351562 -4.476562 L 1.574219 -4.476562 L 1.460938 -4.492188 L 1.332031 -4.464844 L 0.808594 -4.464844 L 0.683594 -4.484375 L 0.539062 -4.484375 L 0.410156 -4.421875 L 0.347656 -4.265625 L 0.363281 -3.792969 L 0.351562 -3.671875 L 0.421875 -3.542969 L 0.5625 -3.472656 L 0.691406 -3.472656 L 0.8125 -3.394531 L 0.871094 -3.222656 L 0.890625 -1.253906 L 0.820312 -1.0625 L 0.398438 -0.933594 L 0.328125 -0.820312 L 0.308594 -0.230469 L 0.371094 -0.0585938 L 0.5 0 L 0.621094 0 L 0.742188 -0.0117188 L 0.929688 0.0117188 L 1.128906 0.0078125 L 1.253906 -0.0078125 L 1.511719 0.0195312 L 1.703125 -0.0078125 L 2.019531 -0.0078125 Z M 2.144531 0.0273438 "/></g></g></g><g fill="#8482e8" fill-opacity="1"><g transform="translate(99.64984, 36.734783)"><g><path d="M 2.230469 0.0195312 L 3.144531 0.0078125 L 3.28125 -0.0507812 L 3.351562 -0.1875 L 3.351562 -0.832031 L 3.28125 -0.960938 L 3.144531 -1.019531 L 2.996094 -1.003906 L 2.875 -1.023438 L 2.550781 -1.03125 L 2.339844 -1.003906 L 2.210938 -1.019531 L 2.070312 -1.011719 L 1.949219 -1.03125 L 1.804688 -1.019531 L 1.671875 -1.082031 L 1.621094 -1.199219 L 1.621094 -1.601562 L 1.679688 -1.734375 L 1.792969 -1.804688 L 1.984375 -1.8125 L 2.191406 -1.792969 L 2.433594 -1.804688 L 2.695312 -1.800781 L 2.824219 -1.8125 L 2.972656 -1.804688 L 3.101562 -1.859375 L 3.144531 -1.984375 L 3.164062 -2.5625 L 3.101562 -2.742188 L 2.953125 -2.824219 L 2.574219 -2.824219 L 2.441406 -2.8125 L 2.171875 -2.832031 L 1.800781 -2.820312 L 1.664062 -2.875 L 1.613281 -3.074219 L 1.613281 -3.273438 L 1.671875 -3.394531 L 1.8125 -3.445312 L 1.933594 -3.441406 L 2.054688 -3.464844 L 2.972656 -3.453125 L 3.09375 -3.460938 L 3.226562 -3.535156 L 3.292969 -3.652344 L 3.285156 -3.78125 L 3.292969 -3.90625 L 3.28125 -4.292969 L 3.222656 -4.414062 L 3.09375 -4.464844 L 2.960938 -4.464844 L 2.84375 -4.492188 L 2.324219 -4.484375 L 2.183594 -4.472656 L 2.054688 -4.484375 L 1.949219 -4.476562 L 1.820312 -4.492188 L 1.292969 -4.476562 L 1.164062 -4.496094 L 1.042969 -4.472656 L 0.929688 -4.484375 L 0.800781 -4.472656 L 0.671875 -4.476562 L 0.539062 -4.425781 L 0.46875 -4.292969 L 0.480469 -4.046875 L 0.460938 -3.785156 L 0.480469 -3.644531 L 0.46875 -3.015625 L 0.488281 -2.882812 L 0.472656 -2.761719 L 0.46875 -2.234375 L 0.488281 -2.121094 L 0.480469 -1.082031 L 0.46875 -0.960938 L 0.488281 -0.832031 L 0.46875 -0.390625 L 0.480469 -0.25 L 0.53125 -0.078125 L 0.722656 0.0078125 L 1.183594 0.0117188 L 1.324219 0 L 1.441406 0.0078125 L 1.703125 -0.0117188 L 1.824219 0.0117188 L 1.972656 0.0195312 L 2.101562 0.0078125 Z M 2.230469 0.0195312 "/></g></g></g><g fill="#8482e8" fill-opacity="1"><g transform="translate(103.320378, 36.734783)"><g><path d="M 3.78125 -0.109375 L 3.953125 -0.0078125 L 4.132812 0.0117188 L 4.273438 -0.03125 L 4.335938 -0.160156 L 4.347656 -2.5 L 4.332031 -2.605469 L 4.332031 -3.242188 L 4.347656 -3.394531 L 4.332031 -4.285156 L 4.265625 -4.414062 L 4.136719 -4.484375 L 3.34375 -4.476562 L 3.222656 -4.40625 L 3.152344 -4.273438 L 3.144531 -4.136719 L 3.164062 -4.035156 L 3.144531 -3.765625 L 3.15625 -3.625 L 3.144531 -2.480469 L 3.105469 -2.371094 L 3.011719 -2.414062 L 2.554688 -2.871094 L 2.375 -3.011719 L 1.113281 -4.285156 L 1.019531 -4.363281 L 0.871094 -4.4375 L 0.679688 -4.484375 L 0.53125 -4.421875 L 0.472656 -4.296875 L 0.472656 -2.355469 L 0.46875 -2.25 L 0.480469 -1.984375 L 0.460938 -1.875 L 0.472656 -0.828125 L 0.460938 -0.703125 L 0.472656 -0.167969 L 0.53125 -0.0429688 L 0.667969 0 L 0.929688 0.0117188 L 1.070312 0 L 1.320312 0.0195312 L 1.453125 0.0117188 L 1.582031 -0.0507812 L 1.644531 -0.25 L 1.652344 -1.871094 L 1.664062 -2 L 1.710938 -2.109375 L 1.792969 -2.074219 L 1.875 -1.964844 L 2.332031 -1.53125 L 2.414062 -1.433594 L 2.523438 -1.363281 L 3.515625 -0.378906 L 3.683594 -0.191406 Z M 3.78125 -0.109375 "/></g></g></g><g fill="#8482e8" fill-opacity="1"><g transform="translate(108.150367, 36.734783)"><g><path d="M 2.230469 0.0507812 L 2.550781 0.078125 L 2.996094 0.0429688 L 3.375 -0.03125 L 3.492188 -0.0976562 L 3.625 -0.140625 L 3.734375 -0.191406 L 4.046875 -0.417969 L 4.226562 -0.597656 L 4.375 -0.789062 L 4.507812 -1.019531 L 4.675781 -1.503906 L 4.636719 -1.621094 L 4.507812 -1.703125 L 4.152344 -1.679688 L 4.023438 -1.699219 L 3.894531 -1.691406 L 3.765625 -1.699219 L 3.621094 -1.621094 L 3.515625 -1.519531 L 3.453125 -1.394531 L 3.304688 -1.230469 L 3.203125 -1.140625 L 3.105469 -1.101562 L 2.882812 -0.980469 L 2.542969 -0.960938 L 2.355469 -0.980469 L 2.125 -1.0625 L 1.902344 -1.179688 L 1.714844 -1.34375 L 1.574219 -1.570312 L 1.53125 -1.699219 L 1.484375 -1.789062 L 1.453125 -1.902344 L 1.433594 -2.042969 L 1.433594 -2.433594 L 1.480469 -2.691406 L 1.574219 -2.921875 L 1.640625 -3.042969 L 1.792969 -3.222656 L 1.949219 -3.34375 L 2.121094 -3.441406 L 2.550781 -3.496094 L 2.824219 -3.484375 L 3.023438 -3.425781 L 3.140625 -3.382812 L 3.226562 -3.3125 L 3.414062 -3.125 L 3.484375 -3.03125 L 3.605469 -2.910156 L 3.753906 -2.835938 L 3.867188 -2.851562 L 4.003906 -2.84375 L 4.132812 -2.851562 L 4.3125 -2.832031 L 4.503906 -2.851562 L 4.613281 -2.902344 L 4.65625 -3.03125 L 4.617188 -3.171875 L 4.574219 -3.285156 L 4.535156 -3.421875 L 4.464844 -3.523438 L 4.40625 -3.625 L 4.316406 -3.734375 L 4.246094 -3.855469 L 4.066406 -4.042969 L 3.632812 -4.316406 L 3.015625 -4.523438 L 2.894531 -4.527344 L 2.765625 -4.546875 L 2.371094 -4.554688 L 1.75 -4.433594 L 1.273438 -4.207031 L 1.089844 -4.066406 L 0.8125 -3.816406 L 0.640625 -3.601562 L 0.519531 -3.414062 L 0.359375 -3.054688 L 0.292969 -2.792969 L 0.230469 -2.242188 L 0.269531 -1.773438 L 0.359375 -1.410156 L 0.632812 -0.851562 L 0.898438 -0.570312 L 1.183594 -0.320312 L 1.460938 -0.171875 L 1.75 -0.0507812 L 1.863281 -0.0273438 L 1.992188 0.0195312 L 2.109375 0.0429688 Z M 2.230469 0.0507812 "/></g></g></g><g fill="#8482e8" fill-opacity="1"><g transform="translate(113.038008, 36.734783)"><g><path d="M 2.230469 0.0195312 L 3.144531 0.0078125 L 3.28125 -0.0507812 L 3.351562 -0.1875 L 3.351562 -0.832031 L 3.28125 -0.960938 L 3.144531 -1.019531 L 2.996094 -1.003906 L 2.875 -1.023438 L 2.550781 -1.03125 L 2.339844 -1.003906 L 2.210938 -1.019531 L 2.070312 -1.011719 L 1.949219 -1.03125 L 1.804688 -1.019531 L 1.671875 -1.082031 L 1.621094 -1.199219 L 1.621094 -1.601562 L 1.679688 -1.734375 L 1.792969 -1.804688 L 1.984375 -1.8125 L 2.191406 -1.792969 L 2.433594 -1.804688 L 2.695312 -1.800781 L 2.824219 -1.8125 L 2.972656 -1.804688 L 3.101562 -1.859375 L 3.144531 -1.984375 L 3.164062 -2.5625 L 3.101562 -2.742188 L 2.953125 -2.824219 L 2.574219 -2.824219 L 2.441406 -2.8125 L 2.171875 -2.832031 L 1.800781 -2.820312 L 1.664062 -2.875 L 1.613281 -3.074219 L 1.613281 -3.273438 L 1.671875 -3.394531 L 1.8125 -3.445312 L 1.933594 -3.441406 L 2.054688 -3.464844 L 2.972656 -3.453125 L 3.09375 -3.460938 L 3.226562 -3.535156 L 3.292969 -3.652344 L 3.285156 -3.78125 L 3.292969 -3.90625 L 3.28125 -4.292969 L 3.222656 -4.414062 L 3.09375 -4.464844 L 2.960938 -4.464844 L 2.84375 -4.492188 L 2.324219 -4.484375 L 2.183594 -4.472656 L 2.054688 -4.484375 L 1.949219 -4.476562 L 1.820312 -4.492188 L 1.292969 -4.476562 L 1.164062 -4.496094 L 1.042969 -4.472656 L 0.929688 -4.484375 L 0.800781 -4.472656 L 0.671875 -4.476562 L 0.539062 -4.425781 L 0.46875 -4.292969 L 0.480469 -4.046875 L 0.460938 -3.785156 L 0.480469 -3.644531 L 0.46875 -3.015625 L 0.488281 -2.882812 L 0.472656 -2.761719 L 0.46875 -2.234375 L 0.488281 -2.121094 L 0.480469 -1.082031 L 0.46875 -0.960938 L 0.488281 -0.832031 L 0.46875 -0.390625 L 0.480469 -0.25 L 0.53125 -0.078125 L 0.722656 0.0078125 L 1.183594 0.0117188 L 1.324219 0 L 1.441406 0.0078125 L 1.703125 -0.0117188 L 1.824219 0.0117188 L 1.972656 0.0195312 L 2.101562 0.0078125 Z M 2.230469 0.0195312 "/></g></g></g><g fill="#5956e9" fill-opacity="1"><g transform="translate(3.951525, 26.894672)"><g><path d="M 1.78125 -5 L 1.78125 -7.25 L 11.96875 -10.046875 L 11.96875 -7.65625 Z M 2.296875 -4.453125 L 6.609375 -5.5625 L 11.96875 -4.140625 L 11.96875 -1.78125 Z M 2.296875 -4.453125 "/></g></g></g><g fill="#5956e9" fill-opacity="1"><g transform="translate(17.694723, 26.894672)"><g><path d="M 5.046875 -2.578125 L 6.640625 -2.578125 L 6.640625 0 L 3.390625 0 L 0.828125 -2.53125 L 0.828125 -10.140625 L 3.390625 -12.671875 L 6.640625 -12.671875 L 6.640625 -10.109375 L 5.046875 -10.109375 Z M 8.921875 -10.109375 L 7.3125 -10.109375 L 7.3125 -12.671875 L 10.578125 -12.671875 L 13.140625 -10.140625 L 13.140625 -2.53125 L 10.578125 0 L 7.3125 0 L 7.3125 -2.578125 L 8.921875 -2.578125 Z M 8.921875 -10.109375 "/></g></g></g><g fill="#5956e9" fill-opacity="1"><g transform="translate(31.667134, 26.894672)"><g><path d="M 1.125 -12.671875 L 5.34375 -12.671875 L 5.34375 -7.015625 L 9.234375 -7.015625 L 9.234375 -4.515625 L 5.34375 -4.515625 L 5.34375 0 L 1.125 0 Z M 6.015625 -10.140625 L 6.015625 -12.671875 L 12.453125 -12.671875 L 12.453125 -8.46875 L 8.21875 -8.46875 L 8.21875 -10.140625 Z M 6.015625 -10.140625 "/></g></g></g><g fill="#5956e9" fill-opacity="1"><g transform="translate(44.359776, 26.894672)"><g><path d="M 1.125 -12.671875 L 5.34375 -12.671875 L 5.34375 -7.015625 L 9.234375 -7.015625 L 9.234375 -4.515625 L 5.34375 -4.515625 L 5.34375 0 L 1.125 0 Z M 6.015625 -10.140625 L 6.015625 -12.671875 L 12.453125 -12.671875 L 12.453125 -8.46875 L 8.21875 -8.46875 L 8.21875 -10.140625 Z M 6.015625 -10.140625 "/></g></g></g><g fill="#5956e9" fill-opacity="1"><g transform="translate(57.052417, 26.894672)"><g><path d="M 3.796875 -9.25 L 8.203125 -9.25 L 8.203125 0 L 3.796875 0 Z M 0.5 -12.671875 L 11.5 -12.671875 L 11.5 -9.921875 L 0.5 -9.921875 Z M 0.5 -12.671875 "/></g></g></g><g fill="#5956e9" fill-opacity="1"><g transform="translate(69.047871, 26.894672)"><g><path d="M 9.109375 -12.671875 L 13.375 -12.671875 L 13.375 0 L 9.140625 0 L 9.140625 -5.15625 L 6.015625 -5.15625 L 6.015625 -7.6875 L 9.109375 -7.6875 Z M 5.34375 0 L 1.125 0 L 1.125 -12.671875 L 5.34375 -12.671875 Z M 5.34375 0 "/></g></g></g><g fill="#5956e9" fill-opacity="1"><g transform="translate(83.52646, 26.894672)"><g><path d="M 5.34375 -5.203125 L 5.34375 0 L 1.125 0 L 1.125 -12.671875 L 5.34375 -12.671875 L 5.34375 -7.65625 L 9.375 -7.65625 L 9.375 -5.203125 Z M 6.015625 -10.21875 L 6.015625 -12.671875 L 12.609375 -12.671875 L 12.609375 -9 L 8.640625 -9 L 8.640625 -10.21875 Z M 6.015625 0 L 6.015625 -2.53125 L 8.390625 -2.53125 L 8.390625 -3.796875 L 12.609375 -3.796875 L 12.609375 0 Z M 6.015625 0 "/></g></g></g><g fill="#5956e9" fill-opacity="1"><g transform="translate(97.040446, 26.894672)"><g><path d="M 1.125 -12.671875 L 5.609375 -12.671875 L 9.015625 -7.046875 L 11.6875 -11.625 L 11.6875 -5.25 L 8.640625 0 Z M 12.3125 0 L 12.3125 -12.671875 L 16.53125 -12.671875 L 16.53125 0 Z M 1.125 0 L 1.125 -11.5 L 5.0625 -4.875 L 5.0625 0 Z M 1.125 0 "/></g></g></g><g fill="#5956e9" fill-opacity="1"><g transform="translate(114.689807, 26.894672)"><g><path d="M 5.078125 -13.546875 L 7.46875 -13.546875 L 1.609375 1.875 L -0.765625 1.875 Z M 5.078125 -13.546875 "/></g></g></g><g fill="#5956e9" fill-opacity="1"><g transform="translate(121.814495, 26.894672)"><g><path d="M 11.953125 -6.8125 L 11.953125 -4.5625 L 1.765625 -1.78125 L 1.765625 -4.15625 Z M 11.4375 -7.359375 L 7.125 -6.25 L 1.765625 -7.671875 L 1.765625 -10.046875 Z M 11.4375 -7.359375 "/></g></g></g></svg>