<svg xmlns="http://www.w3.org/2000/svg" xmlns:xlink="http://www.w3.org/1999/xlink" width="150" zoomAndPan="magnify" viewBox="0 0 112.5 36.000001" height="48" preserveAspectRatio="xMidYMid meet" version="1.0"><defs><g/></defs><g fill="#8482e8" fill-opacity="1"><g transform="translate(19.334133, 25.840412)"><g><path d="M 0.378906 -0.15625 L 0.421875 -0.0546875 L 0.519531 0.00390625 L 0.683594 -0.0117188 L 0.835938 0.00390625 L 1.566406 -0.00390625 L 1.667969 0.0117188 L 2.183594 -0.015625 L 2.277344 -0.03125 L 2.558594 -0.109375 L 2.648438 -0.15625 L 2.851562 -0.316406 L 2.984375 -0.503906 L 3.035156 -0.605469 L 3.066406 -0.699219 L 3.105469 -0.796875 L 3.117188 -1.203125 L 3.0625 -1.382812 L 2.96875 -1.589844 L 2.90625 -1.667969 L 2.824219 -1.738281 L 2.773438 -1.851562 L 2.808594 -1.949219 L 2.90625 -2.144531 L 2.964844 -2.328125 L 2.96875 -2.496094 L 2.960938 -2.652344 L 2.921875 -2.835938 L 2.886719 -2.941406 L 2.71875 -3.171875 L 2.644531 -3.242188 L 2.566406 -3.292969 L 2.496094 -3.347656 L 2.410156 -3.398438 L 2.316406 -3.445312 L 2.230469 -3.472656 L 2.035156 -3.519531 L 1.515625 -3.535156 L 1.425781 -3.515625 L 1.230469 -3.539062 L 1.136719 -3.519531 L 0.527344 -3.53125 L 0.417969 -3.480469 L 0.367188 -3.375 L 0.367188 -3.261719 L 0.378906 -3.171875 L 0.371094 -3.066406 L 0.378906 -2.976562 L 0.367188 -2.679688 L 0.382812 -2.46875 L 0.363281 -1.503906 L 0.378906 -1.355469 L 0.367188 -0.25 Z M 1.410156 -2.148438 L 1.304688 -2.210938 L 1.25 -2.351562 L 1.242188 -2.523438 L 1.304688 -2.667969 L 1.398438 -2.730469 L 1.917969 -2.695312 L 2 -2.652344 L 2.039062 -2.574219 L 2.054688 -2.421875 L 2.019531 -2.277344 L 1.945312 -2.214844 L 1.796875 -2.164062 Z M 1.394531 -0.804688 L 1.304688 -0.839844 L 1.238281 -0.941406 L 1.253906 -1.242188 L 1.300781 -1.328125 L 1.382812 -1.394531 L 1.480469 -1.378906 L 1.585938 -1.390625 L 2.058594 -1.34375 L 2.144531 -1.308594 L 2.195312 -1.21875 L 2.226562 -1.09375 L 2.199219 -0.945312 L 2.144531 -0.875 L 2.058594 -0.820312 L 1.78125 -0.796875 Z M 1.394531 -0.804688 "/></g></g></g><g fill="#8482e8" fill-opacity="1"><g transform="translate(22.657296, 25.840412)"><g><path d="M 1.753906 0.015625 L 2.472656 0.00390625 L 2.578125 -0.0390625 L 2.632812 -0.144531 L 2.632812 -0.65625 L 2.578125 -0.753906 L 2.472656 -0.800781 L 2.355469 -0.789062 L 2.261719 -0.804688 L 2.003906 -0.8125 L 1.835938 -0.789062 L 1.738281 -0.800781 L 1.625 -0.796875 L 1.53125 -0.8125 L 1.417969 -0.800781 L 1.3125 -0.851562 L 1.273438 -0.941406 L 1.273438 -1.257812 L 1.320312 -1.363281 L 1.410156 -1.417969 L 1.5625 -1.425781 L 1.722656 -1.410156 L 1.914062 -1.417969 L 2.121094 -1.414062 L 2.21875 -1.425781 L 2.335938 -1.417969 L 2.4375 -1.460938 L 2.472656 -1.5625 L 2.488281 -2.015625 L 2.4375 -2.15625 L 2.320312 -2.21875 L 2.023438 -2.21875 L 1.917969 -2.210938 L 1.707031 -2.226562 L 1.414062 -2.214844 L 1.308594 -2.261719 L 1.269531 -2.417969 L 1.269531 -2.574219 L 1.3125 -2.667969 L 1.425781 -2.707031 L 1.519531 -2.703125 L 1.617188 -2.722656 L 2.335938 -2.714844 L 2.433594 -2.71875 L 2.539062 -2.78125 L 2.589844 -2.871094 L 2.582031 -2.96875 L 2.589844 -3.070312 L 2.578125 -3.375 L 2.53125 -3.46875 L 2.433594 -3.507812 L 2.328125 -3.507812 L 2.234375 -3.53125 L 1.828125 -3.523438 L 1.71875 -3.515625 L 1.617188 -3.523438 L 1.53125 -3.519531 L 1.429688 -3.53125 L 1.015625 -3.519531 L 0.917969 -3.535156 L 0.820312 -3.515625 L 0.730469 -3.523438 L 0.628906 -3.515625 L 0.527344 -3.519531 L 0.421875 -3.480469 L 0.367188 -3.375 L 0.378906 -3.183594 L 0.363281 -2.976562 L 0.378906 -2.863281 L 0.367188 -2.371094 L 0.382812 -2.265625 L 0.371094 -2.171875 L 0.367188 -1.757812 L 0.382812 -1.667969 L 0.378906 -0.851562 L 0.367188 -0.753906 L 0.382812 -0.65625 L 0.367188 -0.308594 L 0.378906 -0.195312 L 0.417969 -0.0585938 L 0.570312 0.00390625 L 0.929688 0.0117188 L 1.042969 0 L 1.132812 0.00390625 L 1.339844 -0.0117188 L 1.433594 0.0117188 L 1.550781 0.015625 L 1.652344 0.00390625 Z M 1.753906 0.015625 "/></g></g></g><g fill="#8482e8" fill-opacity="1"><g transform="translate(25.542407, 25.840412)"><g><path d="M 1.3125 0.0117188 L 1.652344 0 L 1.796875 -0.0507812 L 1.847656 -0.191406 L 1.863281 -0.453125 L 1.847656 -0.644531 L 1.859375 -0.75 L 1.851562 -0.953125 L 1.863281 -1.042969 L 1.847656 -1.152344 L 1.859375 -1.964844 L 1.84375 -2.070312 L 1.859375 -2.507812 L 1.898438 -2.660156 L 1.992188 -2.71875 L 2.191406 -2.730469 L 2.375 -2.703125 L 2.480469 -2.71875 L 2.574219 -2.714844 L 2.660156 -2.769531 L 2.71875 -2.878906 L 2.722656 -3.359375 L 2.667969 -3.460938 L 2.574219 -3.523438 L 2.261719 -3.523438 L 2.164062 -3.535156 L 2.058594 -3.519531 L 1.964844 -3.53125 L 1.554688 -3.507812 L 1.457031 -3.53125 L 1.359375 -3.535156 L 1.253906 -3.519531 L 1.144531 -3.53125 L 1.050781 -3.507812 L 0.753906 -3.523438 L 0.597656 -3.507812 L 0.246094 -3.53125 L 0.152344 -3.480469 L 0.0898438 -3.363281 L 0.09375 -3.261719 L 0.0859375 -3.011719 L 0.09375 -2.855469 L 0.140625 -2.765625 L 0.230469 -2.714844 L 0.332031 -2.722656 L 0.8125 -2.714844 L 0.90625 -2.664062 L 0.960938 -2.5625 L 0.953125 -2.402344 L 0.960938 -2.261719 L 0.957031 -2.148438 L 0.960938 -2.050781 L 0.953125 -1.910156 L 0.964844 -1.15625 L 0.957031 -1.058594 L 0.953125 -0.648438 L 0.960938 -0.542969 L 0.957031 -0.25 L 0.945312 -0.15625 L 1.011719 -0.046875 L 1.15625 0.00390625 Z M 1.3125 0.0117188 "/></g></g></g><g fill="#8482e8" fill-opacity="1"><g transform="translate(28.357028, 25.840412)"><g><path d="M 1.3125 0.0117188 L 1.652344 0 L 1.796875 -0.0507812 L 1.847656 -0.191406 L 1.863281 -0.453125 L 1.847656 -0.644531 L 1.859375 -0.75 L 1.851562 -0.953125 L 1.863281 -1.042969 L 1.847656 -1.152344 L 1.859375 -1.964844 L 1.84375 -2.070312 L 1.859375 -2.507812 L 1.898438 -2.660156 L 1.992188 -2.71875 L 2.191406 -2.730469 L 2.375 -2.703125 L 2.480469 -2.71875 L 2.574219 -2.714844 L 2.660156 -2.769531 L 2.71875 -2.878906 L 2.722656 -3.359375 L 2.667969 -3.460938 L 2.574219 -3.523438 L 2.261719 -3.523438 L 2.164062 -3.535156 L 2.058594 -3.519531 L 1.964844 -3.53125 L 1.554688 -3.507812 L 1.457031 -3.53125 L 1.359375 -3.535156 L 1.253906 -3.519531 L 1.144531 -3.53125 L 1.050781 -3.507812 L 0.753906 -3.523438 L 0.597656 -3.507812 L 0.246094 -3.53125 L 0.152344 -3.480469 L 0.0898438 -3.363281 L 0.09375 -3.261719 L 0.0859375 -3.011719 L 0.09375 -2.855469 L 0.140625 -2.765625 L 0.230469 -2.714844 L 0.332031 -2.722656 L 0.8125 -2.714844 L 0.90625 -2.664062 L 0.960938 -2.5625 L 0.953125 -2.402344 L 0.960938 -2.261719 L 0.957031 -2.148438 L 0.960938 -2.050781 L 0.953125 -1.910156 L 0.964844 -1.15625 L 0.957031 -1.058594 L 0.953125 -0.648438 L 0.960938 -0.542969 L 0.957031 -0.25 L 0.945312 -0.15625 L 1.011719 -0.046875 L 1.15625 0.00390625 Z M 1.3125 0.0117188 "/></g></g></g><g fill="#8482e8" fill-opacity="1"><g transform="translate(31.171648, 25.840412)"><g><path d="M 1.753906 0.015625 L 2.472656 0.00390625 L 2.578125 -0.0390625 L 2.632812 -0.144531 L 2.632812 -0.65625 L 2.578125 -0.753906 L 2.472656 -0.800781 L 2.355469 -0.789062 L 2.261719 -0.804688 L 2.003906 -0.8125 L 1.835938 -0.789062 L 1.738281 -0.800781 L 1.625 -0.796875 L 1.53125 -0.8125 L 1.417969 -0.800781 L 1.3125 -0.851562 L 1.273438 -0.941406 L 1.273438 -1.257812 L 1.320312 -1.363281 L 1.410156 -1.417969 L 1.5625 -1.425781 L 1.722656 -1.410156 L 1.914062 -1.417969 L 2.121094 -1.414062 L 2.21875 -1.425781 L 2.335938 -1.417969 L 2.4375 -1.460938 L 2.472656 -1.5625 L 2.488281 -2.015625 L 2.4375 -2.15625 L 2.320312 -2.21875 L 2.023438 -2.21875 L 1.917969 -2.210938 L 1.707031 -2.226562 L 1.414062 -2.214844 L 1.308594 -2.261719 L 1.269531 -2.417969 L 1.269531 -2.574219 L 1.3125 -2.667969 L 1.425781 -2.707031 L 1.519531 -2.703125 L 1.617188 -2.722656 L 2.335938 -2.714844 L 2.433594 -2.71875 L 2.539062 -2.78125 L 2.589844 -2.871094 L 2.582031 -2.96875 L 2.589844 -3.070312 L 2.578125 -3.375 L 2.53125 -3.46875 L 2.433594 -3.507812 L 2.328125 -3.507812 L 2.234375 -3.53125 L 1.828125 -3.523438 L 1.71875 -3.515625 L 1.617188 -3.523438 L 1.53125 -3.519531 L 1.429688 -3.53125 L 1.015625 -3.519531 L 0.917969 -3.535156 L 0.820312 -3.515625 L 0.730469 -3.523438 L 0.628906 -3.515625 L 0.527344 -3.519531 L 0.421875 -3.480469 L 0.367188 -3.375 L 0.378906 -3.183594 L 0.363281 -2.976562 L 0.378906 -2.863281 L 0.367188 -2.371094 L 0.382812 -2.265625 L 0.371094 -2.171875 L 0.367188 -1.757812 L 0.382812 -1.667969 L 0.378906 -0.851562 L 0.367188 -0.753906 L 0.382812 -0.65625 L 0.367188 -0.308594 L 0.378906 -0.195312 L 0.417969 -0.0585938 L 0.570312 0.00390625 L 0.929688 0.0117188 L 1.042969 0 L 1.132812 0.00390625 L 1.339844 -0.0117188 L 1.433594 0.0117188 L 1.550781 0.015625 L 1.652344 0.00390625 Z M 1.753906 0.015625 "/></g></g></g><g fill="#8482e8" fill-opacity="1"><g transform="translate(34.056759, 25.840412)"><g><path d="M 0.378906 -0.207031 L 0.429688 -0.0507812 L 0.574219 0.015625 L 0.675781 0 L 0.835938 0.015625 L 0.917969 0.00390625 L 1.066406 0.00390625 L 1.230469 -0.046875 L 1.273438 -0.191406 L 1.273438 -0.363281 L 1.285156 -0.453125 L 1.269531 -0.558594 L 1.277344 -0.882812 L 1.324219 -0.980469 L 1.417969 -1.039062 L 1.710938 -0.996094 L 1.8125 -0.910156 L 1.871094 -0.8125 L 1.914062 -0.71875 L 2.019531 -0.570312 L 2.113281 -0.386719 L 2.171875 -0.3125 L 2.210938 -0.210938 L 2.265625 -0.125 L 2.375 -0.0351562 L 2.546875 0.0117188 L 2.945312 0.00390625 L 3.042969 0.015625 L 3.207031 0.0117188 L 3.304688 -0.0351562 L 3.332031 -0.144531 L 3.277344 -0.257812 L 3.21875 -0.328125 L 3.175781 -0.421875 L 3.007812 -0.679688 L 2.960938 -0.769531 L 2.800781 -1.03125 L 2.738281 -1.109375 L 2.734375 -1.230469 L 2.78125 -1.339844 L 2.851562 -1.414062 L 2.921875 -1.476562 L 3.117188 -1.828125 L 3.183594 -2.121094 L 3.171875 -2.4375 L 3.15625 -2.539062 L 3.066406 -2.824219 L 3.027344 -2.910156 L 2.96875 -2.992188 L 2.683594 -3.292969 L 2.507812 -3.386719 L 2.316406 -3.453125 L 2.027344 -3.519531 L 1.867188 -3.523438 L 1.722656 -3.515625 L 1.417969 -3.515625 L 1.320312 -3.535156 L 1.21875 -3.535156 L 1.128906 -3.507812 L 1.027344 -3.507812 L 0.925781 -3.53125 L 0.816406 -3.535156 L 0.519531 -3.507812 L 0.429688 -3.460938 L 0.367188 -3.316406 L 0.371094 -2.164062 L 0.382812 -2.0625 L 0.367188 -1.863281 L 0.371094 -1.753906 L 0.371094 -1.652344 L 0.382812 -1.554688 L 0.371094 -1.460938 L 0.367188 -1.050781 L 0.378906 -0.953125 Z M 1.417969 -1.84375 L 1.320312 -1.898438 L 1.277344 -1.980469 L 1.277344 -2.28125 L 1.269531 -2.367188 L 1.277344 -2.578125 L 1.324219 -2.671875 L 1.429688 -2.714844 L 1.53125 -2.707031 L 1.730469 -2.730469 L 1.871094 -2.699219 L 2.003906 -2.6875 L 2.101562 -2.664062 L 2.226562 -2.507812 L 2.253906 -2.425781 L 2.277344 -2.296875 L 2.261719 -2.144531 L 2.214844 -2.042969 L 2.160156 -1.96875 L 2.105469 -1.921875 L 2.015625 -1.882812 L 1.867188 -1.847656 L 1.773438 -1.84375 L 1.53125 -1.851562 Z M 1.417969 -1.84375 "/></g></g></g><g fill="#8482e8" fill-opacity="1"><g transform="translate(37.551117, 25.840412)"><g/></g></g><g fill="#8482e8" fill-opacity="1"><g transform="translate(38.91563, 25.840412)"><g><path d="M 1.550781 0.015625 L 1.703125 0.015625 L 1.859375 -0.00390625 L 1.957031 -0.00390625 L 2.105469 -0.0507812 L 2.3125 -0.0859375 L 2.546875 -0.1875 L 2.886719 -0.414062 L 3.132812 -0.730469 L 3.183594 -0.832031 L 3.242188 -0.910156 L 3.324219 -1.109375 L 3.347656 -1.203125 L 3.367188 -1.308594 L 3.398438 -1.394531 L 3.414062 -1.496094 L 3.414062 -1.601562 L 3.429688 -1.761719 L 3.425781 -1.910156 L 3.351562 -2.304688 L 3.289062 -2.496094 L 3.246094 -2.59375 L 3.078125 -2.859375 L 2.808594 -3.15625 L 2.554688 -3.328125 L 2.457031 -3.382812 L 2.355469 -3.402344 L 2.269531 -3.445312 L 2.164062 -3.46875 L 1.867188 -3.515625 L 0.71875 -3.523438 L 0.628906 -3.507812 L 0.527344 -3.515625 L 0.417969 -3.46875 L 0.371094 -3.363281 L 0.367188 -0.546875 L 0.378906 -0.453125 L 0.378906 -0.195312 L 0.429688 -0.0390625 L 0.527344 0.0117188 L 0.628906 0 L 1.242188 0.0117188 L 1.34375 -0.00390625 Z M 1.535156 -0.8125 L 1.441406 -0.820312 L 1.324219 -0.875 L 1.285156 -0.972656 L 1.277344 -1.058594 L 1.285156 -1.265625 L 1.265625 -1.511719 L 1.285156 -1.761719 L 1.273438 -2.457031 L 1.285156 -2.542969 L 1.335938 -2.660156 L 1.496094 -2.695312 L 1.707031 -2.699219 L 1.851562 -2.683594 L 2.050781 -2.628906 L 2.140625 -2.582031 L 2.214844 -2.527344 L 2.289062 -2.457031 L 2.367188 -2.367188 L 2.417969 -2.28125 L 2.460938 -2.191406 L 2.542969 -1.746094 L 2.492188 -1.394531 L 2.40625 -1.207031 L 2.21875 -0.996094 L 2.050781 -0.886719 L 1.902344 -0.839844 L 1.6875 -0.816406 Z M 1.535156 -0.8125 "/></g></g></g><g fill="#8482e8" fill-opacity="1"><g transform="translate(42.576143, 25.840412)"><g><path d="M 1.6875 0.0195312 L 1.886719 0.0117188 L 1.980469 -0.0390625 L 2.027344 -0.136719 L 2.027344 -0.632812 L 1.96875 -0.730469 L 1.859375 -0.785156 L 1.753906 -0.785156 L 1.632812 -0.824219 L 1.570312 -0.941406 L 1.585938 -1.039062 L 1.582031 -1.589844 L 1.589844 -1.703125 L 1.570312 -2.0625 L 1.589844 -2.574219 L 1.625 -2.6875 L 1.738281 -2.734375 L 1.835938 -2.75 L 1.945312 -2.789062 L 1.992188 -2.871094 L 2 -3.367188 L 1.9375 -3.464844 L 1.847656 -3.519531 L 1.238281 -3.519531 L 1.148438 -3.53125 L 1.046875 -3.507812 L 0.632812 -3.507812 L 0.539062 -3.523438 L 0.421875 -3.523438 L 0.320312 -3.472656 L 0.273438 -3.351562 L 0.285156 -2.980469 L 0.277344 -2.886719 L 0.332031 -2.785156 L 0.441406 -2.730469 L 0.542969 -2.730469 L 0.640625 -2.667969 L 0.683594 -2.53125 L 0.699219 -0.988281 L 0.644531 -0.835938 L 0.3125 -0.734375 L 0.257812 -0.644531 L 0.242188 -0.179688 L 0.292969 -0.046875 L 0.394531 0 L 0.488281 0 L 0.585938 -0.0117188 L 0.730469 0.0117188 L 0.886719 0.00390625 L 0.988281 -0.00390625 L 1.1875 0.015625 L 1.339844 -0.00390625 L 1.585938 -0.00390625 Z M 1.6875 0.0195312 "/></g></g></g><g fill="#8482e8" fill-opacity="1"><g transform="translate(44.862078, 25.840412)"><g><path d="M 1.746094 0.0507812 L 2.25 0.0507812 L 2.628906 -0.0390625 L 2.984375 -0.222656 L 3.140625 -0.34375 L 3.21875 -0.421875 L 3.292969 -0.484375 L 3.351562 -0.554688 L 3.402344 -0.640625 L 3.449219 -0.730469 L 3.507812 -0.800781 L 3.609375 -1.097656 L 3.652344 -1.289062 L 3.65625 -1.375 L 3.675781 -1.464844 L 3.675781 -1.566406 L 3.6875 -1.660156 L 3.675781 -1.851562 L 3.625 -1.9375 L 3.53125 -1.988281 L 3.425781 -1.992188 L 3.316406 -2.007812 L 2.636719 -1.992188 L 2.335938 -2.015625 L 2.144531 -2 L 2.042969 -1.949219 L 2 -1.851562 L 2 -1.375 L 2.042969 -1.292969 L 2.136719 -1.238281 L 2.28125 -1.230469 L 2.53125 -1.25 L 2.625 -1.234375 L 2.699219 -1.199219 L 2.714844 -1.113281 L 2.664062 -1.027344 L 2.589844 -0.941406 L 2.515625 -0.886719 L 2.351562 -0.820312 L 2.15625 -0.777344 L 2.023438 -0.769531 L 1.765625 -0.800781 L 1.496094 -0.910156 L 1.34375 -1.050781 L 1.289062 -1.121094 L 1.191406 -1.304688 L 1.152344 -1.449219 L 1.128906 -1.609375 L 1.121094 -1.902344 L 1.15625 -2.101562 L 1.238281 -2.28125 L 1.394531 -2.515625 L 1.570312 -2.644531 L 1.65625 -2.6875 L 1.753906 -2.699219 L 1.835938 -2.738281 L 2.144531 -2.75 L 2.332031 -2.699219 L 2.425781 -2.660156 L 2.523438 -2.59375 L 2.582031 -2.527344 L 2.648438 -2.441406 L 2.753906 -2.355469 L 2.875 -2.320312 L 3.03125 -2.316406 L 3.183594 -2.335938 L 3.425781 -2.320312 L 3.550781 -2.375 L 3.578125 -2.460938 L 3.507812 -2.667969 L 3.464844 -2.757812 L 3.261719 -3.050781 L 3.152344 -3.140625 L 3.070312 -3.21875 L 2.996094 -3.277344 L 2.644531 -3.464844 L 2.539062 -3.484375 L 2.300781 -3.550781 L 1.832031 -3.570312 L 1.730469 -3.566406 L 1.644531 -3.535156 L 1.550781 -3.53125 L 1.164062 -3.386719 L 0.886719 -3.21875 L 0.664062 -3.019531 L 0.597656 -2.941406 L 0.523438 -2.863281 L 0.46875 -2.789062 L 0.28125 -2.410156 L 0.191406 -1.914062 L 0.1875 -1.753906 L 0.210938 -1.398438 L 0.351562 -0.925781 L 0.441406 -0.753906 L 0.558594 -0.585938 L 0.761719 -0.371094 L 0.925781 -0.257812 L 1.273438 -0.0546875 L 1.359375 -0.03125 L 1.644531 0.0195312 Z M 1.746094 0.0507812 "/></g></g></g><g fill="#8482e8" fill-opacity="1"><g transform="translate(48.718959, 25.840412)"><g><path d="M 1.6875 0.0195312 L 1.886719 0.0117188 L 1.980469 -0.0390625 L 2.027344 -0.136719 L 2.027344 -0.632812 L 1.96875 -0.730469 L 1.859375 -0.785156 L 1.753906 -0.785156 L 1.632812 -0.824219 L 1.570312 -0.941406 L 1.585938 -1.039062 L 1.582031 -1.589844 L 1.589844 -1.703125 L 1.570312 -2.0625 L 1.589844 -2.574219 L 1.625 -2.6875 L 1.738281 -2.734375 L 1.835938 -2.75 L 1.945312 -2.789062 L 1.992188 -2.871094 L 2 -3.367188 L 1.9375 -3.464844 L 1.847656 -3.519531 L 1.238281 -3.519531 L 1.148438 -3.53125 L 1.046875 -3.507812 L 0.632812 -3.507812 L 0.539062 -3.523438 L 0.421875 -3.523438 L 0.320312 -3.472656 L 0.273438 -3.351562 L 0.285156 -2.980469 L 0.277344 -2.886719 L 0.332031 -2.785156 L 0.441406 -2.730469 L 0.542969 -2.730469 L 0.640625 -2.667969 L 0.683594 -2.53125 L 0.699219 -0.988281 L 0.644531 -0.835938 L 0.3125 -0.734375 L 0.257812 -0.644531 L 0.242188 -0.179688 L 0.292969 -0.046875 L 0.394531 0 L 0.488281 0 L 0.585938 -0.0117188 L 0.730469 0.0117188 L 0.886719 0.00390625 L 0.988281 -0.00390625 L 1.1875 0.015625 L 1.339844 -0.00390625 L 1.585938 -0.00390625 Z M 1.6875 0.0195312 "/></g></g></g><g fill="#8482e8" fill-opacity="1"><g transform="translate(51.004894, 25.840412)"><g><path d="M 1.3125 0.0117188 L 1.652344 0 L 1.796875 -0.0507812 L 1.847656 -0.191406 L 1.863281 -0.453125 L 1.847656 -0.644531 L 1.859375 -0.75 L 1.851562 -0.953125 L 1.863281 -1.042969 L 1.847656 -1.152344 L 1.859375 -1.964844 L 1.84375 -2.070312 L 1.859375 -2.507812 L 1.898438 -2.660156 L 1.992188 -2.71875 L 2.191406 -2.730469 L 2.375 -2.703125 L 2.480469 -2.71875 L 2.574219 -2.714844 L 2.660156 -2.769531 L 2.71875 -2.878906 L 2.722656 -3.359375 L 2.667969 -3.460938 L 2.574219 -3.523438 L 2.261719 -3.523438 L 2.164062 -3.535156 L 2.058594 -3.519531 L 1.964844 -3.53125 L 1.554688 -3.507812 L 1.457031 -3.53125 L 1.359375 -3.535156 L 1.253906 -3.519531 L 1.144531 -3.53125 L 1.050781 -3.507812 L 0.753906 -3.523438 L 0.597656 -3.507812 L 0.246094 -3.53125 L 0.152344 -3.480469 L 0.0898438 -3.363281 L 0.09375 -3.261719 L 0.0859375 -3.011719 L 0.09375 -2.855469 L 0.140625 -2.765625 L 0.230469 -2.714844 L 0.332031 -2.722656 L 0.8125 -2.714844 L 0.90625 -2.664062 L 0.960938 -2.5625 L 0.953125 -2.402344 L 0.960938 -2.261719 L 0.957031 -2.148438 L 0.960938 -2.050781 L 0.953125 -1.910156 L 0.964844 -1.15625 L 0.957031 -1.058594 L 0.953125 -0.648438 L 0.960938 -0.542969 L 0.957031 -0.25 L 0.945312 -0.15625 L 1.011719 -0.046875 L 1.15625 0.00390625 Z M 1.3125 0.0117188 "/></g></g></g><g fill="#8482e8" fill-opacity="1"><g transform="translate(53.819515, 25.840412)"><g><path d="M 2.96875 0.0117188 L 3.160156 -0.00390625 L 3.257812 0.00390625 L 3.414062 0 L 3.554688 -0.0234375 L 3.570312 -0.144531 L 3.535156 -0.261719 L 3.460938 -0.449219 L 3.324219 -0.710938 L 3.253906 -0.894531 L 3.152344 -1.078125 L 2.960938 -1.535156 L 2.910156 -1.609375 L 2.859375 -1.707031 L 2.828125 -1.816406 L 2.785156 -1.894531 L 2.753906 -1.972656 L 2.648438 -2.160156 L 2.613281 -2.265625 L 2.28125 -2.964844 L 2.25 -3.066406 L 2.195312 -3.15625 L 2.164062 -3.246094 L 2.070312 -3.425781 L 1.984375 -3.515625 L 1.816406 -3.566406 L 1.65625 -3.507812 L 1.566406 -3.425781 L 1.519531 -3.339844 L 1.484375 -3.238281 L 1.441406 -3.167969 L 1.238281 -2.703125 L 1.183594 -2.628906 L 1.15625 -2.527344 L 1.101562 -2.433594 L 1.074219 -2.339844 L 0.558594 -1.265625 L 0.527344 -1.152344 L 0.476562 -1.078125 L 0.441406 -0.976562 L 0.351562 -0.816406 L 0.277344 -0.613281 L 0.222656 -0.542969 L 0.195312 -0.453125 L 0.09375 -0.25 L 0.0664062 -0.152344 L 0.0898438 -0.0234375 L 0.191406 0.00390625 L 0.386719 -0.00390625 L 0.488281 0.00390625 L 0.769531 -0.00390625 L 0.886719 -0.0390625 L 0.980469 -0.132812 L 1.074219 -0.296875 L 1.167969 -0.394531 L 1.273438 -0.449219 L 1.371094 -0.433594 L 1.582031 -0.453125 L 1.671875 -0.4375 L 2.164062 -0.441406 L 2.253906 -0.433594 L 2.367188 -0.449219 L 2.476562 -0.394531 L 2.574219 -0.3125 L 2.617188 -0.214844 L 2.648438 -0.125 L 2.75 -0.0507812 L 2.863281 0 Z M 1.828125 -1.242188 L 1.726562 -1.265625 L 1.609375 -1.253906 L 1.53125 -1.289062 L 1.527344 -1.382812 L 1.761719 -1.929688 L 1.816406 -1.972656 L 1.886719 -1.933594 L 2.125 -1.378906 L 2.105469 -1.289062 L 2.027344 -1.25 Z M 1.828125 -1.242188 "/></g></g></g><g fill="#8482e8" fill-opacity="1"><g transform="translate(57.474995, 25.840412)"><g><path d="M 0.382812 -0.179688 L 0.417969 -0.0507812 L 0.511719 0 L 0.613281 0.0117188 L 0.824219 -0.00390625 L 1.023438 0.00390625 L 1.214844 -0.00390625 L 1.308594 0.0117188 L 1.417969 0 L 2.417969 0.00390625 L 2.511719 -0.046875 L 2.566406 -0.203125 L 2.5625 -0.609375 L 2.515625 -0.761719 L 2.425781 -0.820312 L 2.320312 -0.8125 L 2.226562 -0.789062 L 2.121094 -0.804688 L 1.914062 -0.800781 L 1.8125 -0.820312 L 1.722656 -0.804688 L 1.527344 -0.816406 L 1.417969 -0.804688 L 1.320312 -0.847656 L 1.277344 -0.945312 L 1.285156 -2.652344 L 1.273438 -2.773438 L 1.285156 -2.976562 L 1.269531 -3.261719 L 1.273438 -3.359375 L 1.222656 -3.46875 L 1.121094 -3.53125 L 0.925781 -3.53125 L 0.824219 -3.507812 L 0.625 -3.53125 L 0.527344 -3.515625 L 0.421875 -3.472656 L 0.378906 -3.363281 L 0.378906 -2.660156 L 0.367188 -2.5625 L 0.378906 -2.460938 L 0.363281 -2.277344 L 0.367188 -2.164062 L 0.378906 -2.070312 Z M 0.382812 -0.179688 "/></g></g></g><g fill="#8482e8" fill-opacity="1"><g transform="translate(60.183874, 25.840412)"><g/></g></g><g fill="#8482e8" fill-opacity="1"><g transform="translate(61.548387, 25.840412)"><g><path d="M 1.753906 0.015625 L 2.472656 0.00390625 L 2.578125 -0.0390625 L 2.632812 -0.144531 L 2.632812 -0.65625 L 2.578125 -0.753906 L 2.472656 -0.800781 L 2.355469 -0.789062 L 2.261719 -0.804688 L 2.003906 -0.8125 L 1.835938 -0.789062 L 1.738281 -0.800781 L 1.625 -0.796875 L 1.53125 -0.8125 L 1.417969 -0.800781 L 1.3125 -0.851562 L 1.273438 -0.941406 L 1.273438 -1.257812 L 1.320312 -1.363281 L 1.410156 -1.417969 L 1.5625 -1.425781 L 1.722656 -1.410156 L 1.914062 -1.417969 L 2.121094 -1.414062 L 2.21875 -1.425781 L 2.335938 -1.417969 L 2.4375 -1.460938 L 2.472656 -1.5625 L 2.488281 -2.015625 L 2.4375 -2.15625 L 2.320312 -2.21875 L 2.023438 -2.21875 L 1.917969 -2.210938 L 1.707031 -2.226562 L 1.414062 -2.214844 L 1.308594 -2.261719 L 1.269531 -2.417969 L 1.269531 -2.574219 L 1.3125 -2.667969 L 1.425781 -2.707031 L 1.519531 -2.703125 L 1.617188 -2.722656 L 2.335938 -2.714844 L 2.433594 -2.71875 L 2.539062 -2.78125 L 2.589844 -2.871094 L 2.582031 -2.96875 L 2.589844 -3.070312 L 2.578125 -3.375 L 2.53125 -3.46875 L 2.433594 -3.507812 L 2.328125 -3.507812 L 2.234375 -3.53125 L 1.828125 -3.523438 L 1.71875 -3.515625 L 1.617188 -3.523438 L 1.53125 -3.519531 L 1.429688 -3.53125 L 1.015625 -3.519531 L 0.917969 -3.535156 L 0.820312 -3.515625 L 0.730469 -3.523438 L 0.628906 -3.515625 L 0.527344 -3.519531 L 0.421875 -3.480469 L 0.367188 -3.375 L 0.378906 -3.183594 L 0.363281 -2.976562 L 0.378906 -2.863281 L 0.367188 -2.371094 L 0.382812 -2.265625 L 0.371094 -2.171875 L 0.367188 -1.757812 L 0.382812 -1.667969 L 0.378906 -0.851562 L 0.367188 -0.753906 L 0.382812 -0.65625 L 0.367188 -0.308594 L 0.378906 -0.195312 L 0.417969 -0.0585938 L 0.570312 0.00390625 L 0.929688 0.0117188 L 1.042969 0 L 1.132812 0.00390625 L 1.339844 -0.0117188 L 1.433594 0.0117188 L 1.550781 0.015625 L 1.652344 0.00390625 Z M 1.753906 0.015625 "/></g></g></g><g fill="#8482e8" fill-opacity="1"><g transform="translate(64.433498, 25.840412)"><g><path d="M 0.0664062 -0.125 L 0.0820312 -0.0234375 L 0.171875 0.0117188 L 0.699219 0.00390625 L 0.851562 -0.0117188 L 0.964844 -0.046875 L 1.078125 -0.125 L 1.117188 -0.207031 L 1.171875 -0.28125 L 1.21875 -0.382812 L 1.363281 -0.628906 L 1.410156 -0.726562 L 1.476562 -0.789062 L 1.570312 -0.980469 L 1.625 -1.058594 L 1.6875 -1.050781 L 1.746094 -0.976562 L 2.25 -0.132812 L 2.347656 -0.0351562 L 2.46875 0.0195312 L 3.046875 -0.0117188 L 3.148438 0.00390625 L 3.246094 -0.0195312 L 3.261719 -0.136719 L 3.203125 -0.261719 L 3.089844 -0.421875 L 3.046875 -0.507812 L 2.871094 -0.75 L 2.835938 -0.816406 L 2.769531 -0.90625 L 2.671875 -1.082031 L 2.523438 -1.277344 L 2.289062 -1.667969 L 2.230469 -1.742188 L 2.199219 -1.867188 L 2.226562 -1.988281 L 2.296875 -2.078125 L 2.398438 -2.234375 L 2.445312 -2.332031 L 2.804688 -2.839844 L 2.851562 -2.929688 L 3.140625 -3.382812 L 3.117188 -3.488281 L 3.007812 -3.523438 L 2.84375 -3.515625 L 2.480469 -3.53125 L 2.386719 -3.519531 L 2.265625 -3.472656 L 2.148438 -3.398438 L 2.109375 -3.304688 L 1.945312 -3.070312 L 1.910156 -2.96875 L 1.683594 -2.652344 L 1.609375 -2.636719 L 1.5625 -2.71875 L 1.511719 -2.820312 L 1.457031 -2.886719 L 1.417969 -2.976562 L 1.164062 -3.386719 L 1.058594 -3.472656 L 0.9375 -3.53125 L 0.824219 -3.515625 L 0.726562 -3.515625 L 0.609375 -3.53125 L 0.453125 -3.507812 L 0.300781 -3.515625 L 0.1875 -3.484375 L 0.175781 -3.375 L 0.226562 -3.261719 L 0.351562 -3.097656 L 0.433594 -2.949219 L 0.574219 -2.753906 L 0.679688 -2.574219 L 0.738281 -2.496094 L 0.796875 -2.402344 L 0.855469 -2.328125 L 0.957031 -2.15625 L 1.027344 -2.0625 L 1.074219 -1.988281 L 1.101562 -1.851562 L 1.082031 -1.742188 L 0.964844 -1.574219 L 0.867188 -1.394531 L 0.816406 -1.335938 L 0.765625 -1.242188 L 0.699219 -1.179688 L 0.597656 -0.996094 L 0.539062 -0.921875 L 0.378906 -0.65625 L 0.265625 -0.503906 L 0.214844 -0.40625 L 0.160156 -0.335938 L 0.109375 -0.242188 Z M 0.0664062 -0.125 "/></g></g></g><g fill="#8482e8" fill-opacity="1"><g transform="translate(67.771765, 25.840412)"><g><path d="M 0.675781 0.015625 L 0.921875 0.00390625 L 1.011719 0.0117188 L 1.128906 0 L 1.234375 -0.0390625 L 1.277344 -0.144531 L 1.273438 -0.246094 L 1.277344 -0.359375 L 1.269531 -0.542969 L 1.277344 -0.640625 L 1.273438 -0.753906 L 1.320312 -0.847656 L 1.433594 -0.902344 L 1.546875 -0.910156 L 1.652344 -0.890625 L 2.171875 -0.929688 L 2.648438 -1.121094 L 2.722656 -1.183594 L 2.792969 -1.265625 L 2.859375 -1.328125 L 2.925781 -1.40625 L 3.03125 -1.566406 L 3.117188 -1.761719 L 3.132812 -1.871094 L 3.160156 -1.953125 L 3.171875 -2.367188 L 3.152344 -2.453125 L 3.136719 -2.5625 L 3.078125 -2.75 L 2.980469 -2.921875 L 2.859375 -3.085938 L 2.632812 -3.28125 L 2.46875 -3.394531 L 2.265625 -3.453125 L 2.179688 -3.488281 L 2.078125 -3.488281 L 1.980469 -3.523438 L 1.828125 -3.53125 L 1.667969 -3.523438 L 1.554688 -3.507812 L 1.25 -3.515625 L 1.148438 -3.53125 L 0.835938 -3.507812 L 0.726562 -3.515625 L 0.632812 -3.53125 L 0.527344 -3.507812 L 0.421875 -3.453125 L 0.378906 -3.375 L 0.382812 -2.765625 L 0.363281 -2.5625 L 0.371094 -2.46875 L 0.367188 -1.164062 L 0.378906 -1.066406 L 0.371094 -0.136719 L 0.429688 -0.0390625 L 0.585938 0.0117188 Z M 1.429688 -1.707031 L 1.328125 -1.765625 L 1.285156 -1.851562 L 1.269531 -2.261719 L 1.277344 -2.367188 L 1.277344 -2.574219 L 1.328125 -2.667969 L 1.433594 -2.71875 L 1.957031 -2.703125 L 2.058594 -2.660156 L 2.140625 -2.601562 L 2.207031 -2.539062 L 2.253906 -2.4375 L 2.269531 -2.347656 L 2.28125 -2.207031 L 2.269531 -2.070312 L 2.234375 -1.980469 L 2.191406 -1.898438 L 2.125 -1.816406 L 2.042969 -1.757812 L 1.964844 -1.730469 L 1.808594 -1.710938 L 1.550781 -1.71875 Z M 1.429688 -1.707031 "/></g></g></g><g fill="#8482e8" fill-opacity="1"><g transform="translate(71.084858, 25.840412)"><g><path d="M 1.753906 0.015625 L 2.472656 0.00390625 L 2.578125 -0.0390625 L 2.632812 -0.144531 L 2.632812 -0.65625 L 2.578125 -0.753906 L 2.472656 -0.800781 L 2.355469 -0.789062 L 2.261719 -0.804688 L 2.003906 -0.8125 L 1.835938 -0.789062 L 1.738281 -0.800781 L 1.625 -0.796875 L 1.53125 -0.8125 L 1.417969 -0.800781 L 1.3125 -0.851562 L 1.273438 -0.941406 L 1.273438 -1.257812 L 1.320312 -1.363281 L 1.410156 -1.417969 L 1.5625 -1.425781 L 1.722656 -1.410156 L 1.914062 -1.417969 L 2.121094 -1.414062 L 2.21875 -1.425781 L 2.335938 -1.417969 L 2.4375 -1.460938 L 2.472656 -1.5625 L 2.488281 -2.015625 L 2.4375 -2.15625 L 2.320312 -2.21875 L 2.023438 -2.21875 L 1.917969 -2.210938 L 1.707031 -2.226562 L 1.414062 -2.214844 L 1.308594 -2.261719 L 1.269531 -2.417969 L 1.269531 -2.574219 L 1.3125 -2.667969 L 1.425781 -2.707031 L 1.519531 -2.703125 L 1.617188 -2.722656 L 2.335938 -2.714844 L 2.433594 -2.71875 L 2.539062 -2.78125 L 2.589844 -2.871094 L 2.582031 -2.96875 L 2.589844 -3.070312 L 2.578125 -3.375 L 2.53125 -3.46875 L 2.433594 -3.507812 L 2.328125 -3.507812 L 2.234375 -3.53125 L 1.828125 -3.523438 L 1.71875 -3.515625 L 1.617188 -3.523438 L 1.53125 -3.519531 L 1.429688 -3.53125 L 1.015625 -3.519531 L 0.917969 -3.535156 L 0.820312 -3.515625 L 0.730469 -3.523438 L 0.628906 -3.515625 L 0.527344 -3.519531 L 0.421875 -3.480469 L 0.367188 -3.375 L 0.378906 -3.183594 L 0.363281 -2.976562 L 0.378906 -2.863281 L 0.367188 -2.371094 L 0.382812 -2.265625 L 0.371094 -2.171875 L 0.367188 -1.757812 L 0.382812 -1.667969 L 0.378906 -0.851562 L 0.367188 -0.753906 L 0.382812 -0.65625 L 0.367188 -0.308594 L 0.378906 -0.195312 L 0.417969 -0.0585938 L 0.570312 0.00390625 L 0.929688 0.0117188 L 1.042969 0 L 1.132812 0.00390625 L 1.339844 -0.0117188 L 1.433594 0.0117188 L 1.550781 0.015625 L 1.652344 0.00390625 Z M 1.753906 0.015625 "/></g></g></g><g fill="#8482e8" fill-opacity="1"><g transform="translate(73.969968, 25.840412)"><g><path d="M 0.378906 -0.207031 L 0.429688 -0.0507812 L 0.574219 0.015625 L 0.675781 0 L 0.835938 0.015625 L 0.917969 0.00390625 L 1.066406 0.00390625 L 1.230469 -0.046875 L 1.273438 -0.191406 L 1.273438 -0.363281 L 1.285156 -0.453125 L 1.269531 -0.558594 L 1.277344 -0.882812 L 1.324219 -0.980469 L 1.417969 -1.039062 L 1.710938 -0.996094 L 1.8125 -0.910156 L 1.871094 -0.8125 L 1.914062 -0.71875 L 2.019531 -0.570312 L 2.113281 -0.386719 L 2.171875 -0.3125 L 2.210938 -0.210938 L 2.265625 -0.125 L 2.375 -0.0351562 L 2.546875 0.0117188 L 2.945312 0.00390625 L 3.042969 0.015625 L 3.207031 0.0117188 L 3.304688 -0.0351562 L 3.332031 -0.144531 L 3.277344 -0.257812 L 3.21875 -0.328125 L 3.175781 -0.421875 L 3.007812 -0.679688 L 2.960938 -0.769531 L 2.800781 -1.03125 L 2.738281 -1.109375 L 2.734375 -1.230469 L 2.78125 -1.339844 L 2.851562 -1.414062 L 2.921875 -1.476562 L 3.117188 -1.828125 L 3.183594 -2.121094 L 3.171875 -2.4375 L 3.15625 -2.539062 L 3.066406 -2.824219 L 3.027344 -2.910156 L 2.96875 -2.992188 L 2.683594 -3.292969 L 2.507812 -3.386719 L 2.316406 -3.453125 L 2.027344 -3.519531 L 1.867188 -3.523438 L 1.722656 -3.515625 L 1.417969 -3.515625 L 1.320312 -3.535156 L 1.21875 -3.535156 L 1.128906 -3.507812 L 1.027344 -3.507812 L 0.925781 -3.53125 L 0.816406 -3.535156 L 0.519531 -3.507812 L 0.429688 -3.460938 L 0.367188 -3.316406 L 0.371094 -2.164062 L 0.382812 -2.0625 L 0.367188 -1.863281 L 0.371094 -1.753906 L 0.371094 -1.652344 L 0.382812 -1.554688 L 0.371094 -1.460938 L 0.367188 -1.050781 L 0.378906 -0.953125 Z M 1.417969 -1.84375 L 1.320312 -1.898438 L 1.277344 -1.980469 L 1.277344 -2.28125 L 1.269531 -2.367188 L 1.277344 -2.578125 L 1.324219 -2.671875 L 1.429688 -2.714844 L 1.53125 -2.707031 L 1.730469 -2.730469 L 1.871094 -2.699219 L 2.003906 -2.6875 L 2.101562 -2.664062 L 2.226562 -2.507812 L 2.253906 -2.425781 L 2.277344 -2.296875 L 2.261719 -2.144531 L 2.214844 -2.042969 L 2.160156 -1.96875 L 2.105469 -1.921875 L 2.015625 -1.882812 L 1.867188 -1.847656 L 1.773438 -1.84375 L 1.53125 -1.851562 Z M 1.417969 -1.84375 "/></g></g></g><g fill="#8482e8" fill-opacity="1"><g transform="translate(77.464326, 25.840412)"><g><path d="M 1.6875 0.0195312 L 1.886719 0.0117188 L 1.980469 -0.0390625 L 2.027344 -0.136719 L 2.027344 -0.632812 L 1.96875 -0.730469 L 1.859375 -0.785156 L 1.753906 -0.785156 L 1.632812 -0.824219 L 1.570312 -0.941406 L 1.585938 -1.039062 L 1.582031 -1.589844 L 1.589844 -1.703125 L 1.570312 -2.0625 L 1.589844 -2.574219 L 1.625 -2.6875 L 1.738281 -2.734375 L 1.835938 -2.75 L 1.945312 -2.789062 L 1.992188 -2.871094 L 2 -3.367188 L 1.9375 -3.464844 L 1.847656 -3.519531 L 1.238281 -3.519531 L 1.148438 -3.53125 L 1.046875 -3.507812 L 0.632812 -3.507812 L 0.539062 -3.523438 L 0.421875 -3.523438 L 0.320312 -3.472656 L 0.273438 -3.351562 L 0.285156 -2.980469 L 0.277344 -2.886719 L 0.332031 -2.785156 L 0.441406 -2.730469 L 0.542969 -2.730469 L 0.640625 -2.667969 L 0.683594 -2.53125 L 0.699219 -0.988281 L 0.644531 -0.835938 L 0.3125 -0.734375 L 0.257812 -0.644531 L 0.242188 -0.179688 L 0.292969 -0.046875 L 0.394531 0 L 0.488281 0 L 0.585938 -0.0117188 L 0.730469 0.0117188 L 0.886719 0.00390625 L 0.988281 -0.00390625 L 1.1875 0.015625 L 1.339844 -0.00390625 L 1.585938 -0.00390625 Z M 1.6875 0.0195312 "/></g></g></g><g fill="#8482e8" fill-opacity="1"><g transform="translate(79.750261, 25.840412)"><g><path d="M 1.753906 0.015625 L 2.472656 0.00390625 L 2.578125 -0.0390625 L 2.632812 -0.144531 L 2.632812 -0.65625 L 2.578125 -0.753906 L 2.472656 -0.800781 L 2.355469 -0.789062 L 2.261719 -0.804688 L 2.003906 -0.8125 L 1.835938 -0.789062 L 1.738281 -0.800781 L 1.625 -0.796875 L 1.53125 -0.8125 L 1.417969 -0.800781 L 1.3125 -0.851562 L 1.273438 -0.941406 L 1.273438 -1.257812 L 1.320312 -1.363281 L 1.410156 -1.417969 L 1.5625 -1.425781 L 1.722656 -1.410156 L 1.914062 -1.417969 L 2.121094 -1.414062 L 2.21875 -1.425781 L 2.335938 -1.417969 L 2.4375 -1.460938 L 2.472656 -1.5625 L 2.488281 -2.015625 L 2.4375 -2.15625 L 2.320312 -2.21875 L 2.023438 -2.21875 L 1.917969 -2.210938 L 1.707031 -2.226562 L 1.414062 -2.214844 L 1.308594 -2.261719 L 1.269531 -2.417969 L 1.269531 -2.574219 L 1.3125 -2.667969 L 1.425781 -2.707031 L 1.519531 -2.703125 L 1.617188 -2.722656 L 2.335938 -2.714844 L 2.433594 -2.71875 L 2.539062 -2.78125 L 2.589844 -2.871094 L 2.582031 -2.96875 L 2.589844 -3.070312 L 2.578125 -3.375 L 2.53125 -3.46875 L 2.433594 -3.507812 L 2.328125 -3.507812 L 2.234375 -3.53125 L 1.828125 -3.523438 L 1.71875 -3.515625 L 1.617188 -3.523438 L 1.53125 -3.519531 L 1.429688 -3.53125 L 1.015625 -3.519531 L 0.917969 -3.535156 L 0.820312 -3.515625 L 0.730469 -3.523438 L 0.628906 -3.515625 L 0.527344 -3.519531 L 0.421875 -3.480469 L 0.367188 -3.375 L 0.378906 -3.183594 L 0.363281 -2.976562 L 0.378906 -2.863281 L 0.367188 -2.371094 L 0.382812 -2.265625 L 0.371094 -2.171875 L 0.367188 -1.757812 L 0.382812 -1.667969 L 0.378906 -0.851562 L 0.367188 -0.753906 L 0.382812 -0.65625 L 0.367188 -0.308594 L 0.378906 -0.195312 L 0.417969 -0.0585938 L 0.570312 0.00390625 L 0.929688 0.0117188 L 1.042969 0 L 1.132812 0.00390625 L 1.339844 -0.0117188 L 1.433594 0.0117188 L 1.550781 0.015625 L 1.652344 0.00390625 Z M 1.753906 0.015625 "/></g></g></g><g fill="#8482e8" fill-opacity="1"><g transform="translate(82.635372, 25.840412)"><g><path d="M 2.96875 -0.0859375 L 3.105469 -0.00390625 L 3.246094 0.0117188 L 3.359375 -0.0234375 L 3.410156 -0.125 L 3.417969 -1.964844 L 3.402344 -2.050781 L 3.402344 -2.546875 L 3.417969 -2.667969 L 3.402344 -3.367188 L 3.351562 -3.46875 L 3.253906 -3.523438 L 2.628906 -3.519531 L 2.53125 -3.464844 L 2.476562 -3.359375 L 2.472656 -3.253906 L 2.488281 -3.171875 L 2.472656 -2.960938 L 2.480469 -2.851562 L 2.472656 -1.949219 L 2.441406 -1.863281 L 2.367188 -1.898438 L 2.007812 -2.253906 L 1.867188 -2.367188 L 0.875 -3.367188 L 0.800781 -3.429688 L 0.683594 -3.488281 L 0.535156 -3.523438 L 0.417969 -3.472656 L 0.371094 -3.378906 L 0.371094 -1.851562 L 0.367188 -1.765625 L 0.378906 -1.5625 L 0.363281 -1.476562 L 0.371094 -0.648438 L 0.363281 -0.554688 L 0.371094 -0.132812 L 0.417969 -0.0351562 L 0.523438 0 L 0.730469 0.0117188 L 0.839844 0 L 1.039062 0.015625 L 1.144531 0.0117188 L 1.242188 -0.0390625 L 1.292969 -0.195312 L 1.300781 -1.46875 L 1.308594 -1.570312 L 1.34375 -1.65625 L 1.410156 -1.632812 L 1.476562 -1.546875 L 1.832031 -1.203125 L 1.898438 -1.128906 L 1.984375 -1.074219 L 2.765625 -0.296875 L 2.894531 -0.152344 Z M 2.96875 -0.0859375 "/></g></g></g><g fill="#8482e8" fill-opacity="1"><g transform="translate(86.431834, 25.840412)"><g><path d="M 1.753906 0.0390625 L 2.003906 0.0585938 L 2.355469 0.0351562 L 2.652344 -0.0234375 L 2.742188 -0.0742188 L 2.851562 -0.109375 L 2.933594 -0.152344 L 3.183594 -0.328125 L 3.324219 -0.46875 L 3.4375 -0.621094 L 3.542969 -0.800781 L 3.675781 -1.183594 L 3.644531 -1.273438 L 3.542969 -1.339844 L 3.261719 -1.320312 L 3.160156 -1.335938 L 3.0625 -1.328125 L 2.960938 -1.335938 L 2.84375 -1.273438 L 2.765625 -1.191406 L 2.714844 -1.097656 L 2.597656 -0.964844 L 2.515625 -0.894531 L 2.441406 -0.867188 L 2.265625 -0.769531 L 2 -0.753906 L 1.851562 -0.769531 L 1.671875 -0.835938 L 1.496094 -0.925781 L 1.347656 -1.058594 L 1.238281 -1.234375 L 1.203125 -1.335938 L 1.167969 -1.40625 L 1.144531 -1.496094 L 1.128906 -1.605469 L 1.128906 -1.914062 L 1.164062 -2.113281 L 1.238281 -2.296875 L 1.289062 -2.390625 L 1.410156 -2.53125 L 1.53125 -2.628906 L 1.667969 -2.703125 L 2.003906 -2.75 L 2.21875 -2.738281 L 2.375 -2.695312 L 2.46875 -2.660156 L 2.539062 -2.601562 L 2.683594 -2.457031 L 2.738281 -2.382812 L 2.835938 -2.285156 L 2.949219 -2.230469 L 3.042969 -2.242188 L 3.148438 -2.234375 L 3.246094 -2.242188 L 3.386719 -2.226562 L 3.539062 -2.242188 L 3.625 -2.28125 L 3.660156 -2.382812 L 3.628906 -2.492188 L 3.59375 -2.582031 L 3.566406 -2.6875 L 3.507812 -2.769531 L 3.464844 -2.851562 L 3.394531 -2.933594 L 3.339844 -3.03125 L 3.195312 -3.175781 L 2.855469 -3.394531 L 2.371094 -3.554688 L 2.277344 -3.558594 L 2.175781 -3.574219 L 1.863281 -3.578125 L 1.375 -3.484375 L 1.003906 -3.308594 L 0.855469 -3.195312 L 0.640625 -3 L 0.503906 -2.828125 L 0.40625 -2.683594 L 0.28125 -2.402344 L 0.230469 -2.195312 L 0.179688 -1.761719 L 0.210938 -1.394531 L 0.28125 -1.109375 L 0.5 -0.667969 L 0.703125 -0.449219 L 0.929688 -0.25 L 1.148438 -0.136719 L 1.375 -0.0390625 L 1.464844 -0.0195312 L 1.566406 0.015625 L 1.65625 0.0351562 Z M 1.753906 0.0390625 "/></g></g></g><g fill="#8482e8" fill-opacity="1"><g transform="translate(90.273612, 25.840412)"><g><path d="M 1.753906 0.015625 L 2.472656 0.00390625 L 2.578125 -0.0390625 L 2.632812 -0.144531 L 2.632812 -0.65625 L 2.578125 -0.753906 L 2.472656 -0.800781 L 2.355469 -0.789062 L 2.261719 -0.804688 L 2.003906 -0.8125 L 1.835938 -0.789062 L 1.738281 -0.800781 L 1.625 -0.796875 L 1.53125 -0.8125 L 1.417969 -0.800781 L 1.3125 -0.851562 L 1.273438 -0.941406 L 1.273438 -1.257812 L 1.320312 -1.363281 L 1.410156 -1.417969 L 1.5625 -1.425781 L 1.722656 -1.410156 L 1.914062 -1.417969 L 2.121094 -1.414062 L 2.21875 -1.425781 L 2.335938 -1.417969 L 2.4375 -1.460938 L 2.472656 -1.5625 L 2.488281 -2.015625 L 2.4375 -2.15625 L 2.320312 -2.21875 L 2.023438 -2.21875 L 1.917969 -2.210938 L 1.707031 -2.226562 L 1.414062 -2.214844 L 1.308594 -2.261719 L 1.269531 -2.417969 L 1.269531 -2.574219 L 1.3125 -2.667969 L 1.425781 -2.707031 L 1.519531 -2.703125 L 1.617188 -2.722656 L 2.335938 -2.714844 L 2.433594 -2.71875 L 2.539062 -2.78125 L 2.589844 -2.871094 L 2.582031 -2.96875 L 2.589844 -3.070312 L 2.578125 -3.375 L 2.53125 -3.46875 L 2.433594 -3.507812 L 2.328125 -3.507812 L 2.234375 -3.53125 L 1.828125 -3.523438 L 1.71875 -3.515625 L 1.617188 -3.523438 L 1.53125 -3.519531 L 1.429688 -3.53125 L 1.015625 -3.519531 L 0.917969 -3.535156 L 0.820312 -3.515625 L 0.730469 -3.523438 L 0.628906 -3.515625 L 0.527344 -3.519531 L 0.421875 -3.480469 L 0.367188 -3.375 L 0.378906 -3.183594 L 0.363281 -2.976562 L 0.378906 -2.863281 L 0.367188 -2.371094 L 0.382812 -2.265625 L 0.371094 -2.171875 L 0.367188 -1.757812 L 0.382812 -1.667969 L 0.378906 -0.851562 L 0.367188 -0.753906 L 0.382812 -0.65625 L 0.367188 -0.308594 L 0.378906 -0.195312 L 0.417969 -0.0585938 L 0.570312 0.00390625 L 0.929688 0.0117188 L 1.042969 0 L 1.132812 0.00390625 L 1.339844 -0.0117188 L 1.433594 0.0117188 L 1.550781 0.015625 L 1.652344 0.00390625 Z M 1.753906 0.015625 "/></g></g></g><g fill="#5956e9" fill-opacity="1"><g transform="translate(4.529593, 18.1059)"><g><path d="M 1.390625 -3.9375 L 1.390625 -5.703125 L 9.40625 -7.890625 L 9.40625 -6.015625 Z M 1.796875 -3.5 L 5.1875 -4.375 L 9.40625 -3.265625 L 9.40625 -1.390625 Z M 1.796875 -3.5 "/></g></g></g><g fill="#5956e9" fill-opacity="1"><g transform="translate(15.332005, 18.1059)"><g><path d="M 3.96875 -2.03125 L 5.21875 -2.03125 L 5.21875 0 L 2.671875 0 L 0.640625 -1.984375 L 0.640625 -7.96875 L 2.671875 -9.96875 L 5.21875 -9.96875 L 5.21875 -7.9375 L 3.96875 -7.9375 Z M 7.015625 -7.9375 L 5.75 -7.9375 L 5.75 -9.96875 L 8.3125 -9.96875 L 10.328125 -7.96875 L 10.328125 -1.984375 L 8.3125 0 L 5.75 0 L 5.75 -2.03125 L 7.015625 -2.03125 Z M 7.015625 -7.9375 "/></g></g></g><g fill="#5956e9" fill-opacity="1"><g transform="translate(26.314582, 18.1059)"><g><path d="M 0.875 -9.96875 L 4.203125 -9.96875 L 4.203125 -5.515625 L 7.265625 -5.515625 L 7.265625 -3.546875 L 4.203125 -3.546875 L 4.203125 0 L 0.875 0 Z M 4.71875 -7.96875 L 4.71875 -9.96875 L 9.78125 -9.96875 L 9.78125 -6.65625 L 6.46875 -6.65625 L 6.46875 -7.96875 Z M 4.71875 -7.96875 "/></g></g></g><g fill="#5956e9" fill-opacity="1"><g transform="translate(36.291237, 18.1059)"><g><path d="M 0.875 -9.96875 L 4.203125 -9.96875 L 4.203125 -5.515625 L 7.265625 -5.515625 L 7.265625 -3.546875 L 4.203125 -3.546875 L 4.203125 0 L 0.875 0 Z M 4.71875 -7.96875 L 4.71875 -9.96875 L 9.78125 -9.96875 L 9.78125 -6.65625 L 6.46875 -6.65625 L 6.46875 -7.96875 Z M 4.71875 -7.96875 "/></g></g></g><g fill="#5956e9" fill-opacity="1"><g transform="translate(46.267891, 18.1059)"><g><path d="M 2.984375 -7.28125 L 6.4375 -7.28125 L 6.4375 0 L 2.984375 0 Z M 0.390625 -9.96875 L 9.03125 -9.96875 L 9.03125 -7.796875 L 0.390625 -7.796875 Z M 0.390625 -9.96875 "/></g></g></g><g fill="#5956e9" fill-opacity="1"><g transform="translate(55.696543, 18.1059)"><g><path d="M 7.15625 -9.96875 L 10.515625 -9.96875 L 10.515625 0 L 7.1875 0 L 7.1875 -4.046875 L 4.71875 -4.046875 L 4.71875 -6.046875 L 7.15625 -6.046875 Z M 4.203125 0 L 0.875 0 L 0.875 -9.96875 L 4.203125 -9.96875 Z M 4.203125 0 "/></g></g></g><g fill="#5956e9" fill-opacity="1"><g transform="translate(67.076986, 18.1059)"><g><path d="M 4.203125 -4.09375 L 4.203125 0 L 0.875 0 L 0.875 -9.96875 L 4.203125 -9.96875 L 4.203125 -6.015625 L 7.375 -6.015625 L 7.375 -4.09375 Z M 4.71875 -8.03125 L 4.71875 -9.96875 L 9.90625 -9.96875 L 9.90625 -7.078125 L 6.78125 -7.078125 L 6.78125 -8.03125 Z M 4.71875 0 L 4.71875 -1.984375 L 6.59375 -1.984375 L 6.59375 -2.984375 L 9.90625 -2.984375 L 9.90625 0 Z M 4.71875 0 "/></g></g></g><g fill="#5956e9" fill-opacity="1"><g transform="translate(77.699232, 18.1059)"><g><path d="M 0.890625 -9.96875 L 4.421875 -9.96875 L 7.09375 -5.53125 L 9.1875 -9.140625 L 9.1875 -4.125 L 6.796875 0 Z M 9.671875 0 L 9.671875 -9.96875 L 13 -9.96875 L 13 0 Z M 0.875 0 L 0.875 -9.03125 L 3.984375 -3.84375 L 3.984375 0 Z M 0.875 0 "/></g></g></g><g fill="#5956e9" fill-opacity="1"><g transform="translate(91.571962, 18.1059)"><g><path d="M 4 -10.640625 L 5.875 -10.640625 L 1.265625 1.46875 L -0.59375 1.46875 Z M 4 -10.640625 "/></g></g></g><g fill="#5956e9" fill-opacity="1"><g transform="translate(97.1721, 18.1059)"><g><path d="M 9.40625 -5.359375 L 9.40625 -3.59375 L 1.390625 -1.390625 L 1.390625 -3.265625 Z M 9 -5.78125 L 5.609375 -4.921875 L 1.390625 -6.03125 L 1.390625 -7.890625 Z M 9 -5.78125 "/></g></g></g></svg>